<svg width="256" height="244" viewBox="0 0 256 244" fill="none" xmlns="http://www.w3.org/2000/svg">
<g filter="url(#filter0_dd_862_58)">
<mask id="mask0_862_58" style="mask-type:alpha" maskUnits="userSpaceOnUse" x="5" y="7" width="240" height="226">
<path d="M236.902 90.5007C228.144 72.073 217.932 54.3738 206.362 37.571L202.63 32.2036C198.035 25.5333 192.013 19.9707 185.001 15.9206C177.989 11.8703 170.163 9.43408 162.093 8.78881L155.541 8.26047C135.212 6.62737 114.787 6.62737 94.4593 8.26047L87.9071 8.78881C79.8365 9.43408 72.0109 11.8703 64.9989 15.9206C57.9871 19.9707 51.965 25.5333 47.3703 32.2036L43.6383 37.6191C32.0679 54.4218 21.8553 72.1211 13.0976 90.5487L10.2776 96.4805C6.80283 103.797 5 111.795 5 119.895C5 127.996 6.80283 135.994 10.2776 143.31L13.0976 149.242C21.8553 167.67 32.0679 185.369 43.6383 202.172L47.3703 207.587C51.965 214.257 57.9871 219.82 64.9989 223.871C72.0109 227.921 79.8365 230.357 87.9071 231.002L94.4593 231.53C114.787 233.163 135.212 233.163 155.541 231.53L162.093 231.002C170.169 230.349 177.999 227.902 185.011 223.838C192.024 219.775 198.042 214.198 202.63 207.515L206.362 202.1C217.932 185.297 228.144 167.598 236.902 149.17L239.722 143.238C243.196 135.922 245 127.924 245 119.823C245 111.723 243.196 103.725 239.722 96.4084L236.902 90.5007Z" fill="white"/>
</mask>
<g mask="url(#mask0_862_58)">
<rect x="5" width="240" height="240.148" fill="white"/>
</g>
</g>
<path d="M167.16 76.9402H78.4708C72.6397 76.9402 67.9126 81.6702 67.9126 87.5049V150.893C67.9126 156.728 72.6397 161.458 78.4708 161.458H167.16C172.991 161.458 177.718 156.728 177.718 150.893V87.5049C177.718 81.6702 172.991 76.9402 167.16 76.9402Z" stroke="#2F2F2F" stroke-width="9" stroke-linecap="round" stroke-linejoin="round"/>
<path d="M84.8057 93.844L122.815 123.425L160.825 93.844" stroke="#2F2F2F" stroke-width="9" stroke-linecap="round" stroke-linejoin="round"/>
<defs>
<filter id="filter0_dd_862_58" x="0" y="-5" width="256" height="256.148" filterUnits="userSpaceOnUse" color-interpolation-filters="sRGB">
<feFlood flood-opacity="0" result="BackgroundImageFix"/>
<feColorMatrix in="SourceAlpha" type="matrix" values="0 0 0 0 0 0 0 0 0 0 0 0 0 0 0 0 0 0 127 0" result="hardAlpha"/>
<feOffset dx="3" dy="3"/>
<feGaussianBlur stdDeviation="4"/>
<feComposite in2="hardAlpha" operator="out"/>
<feColorMatrix type="matrix" values="0 0 0 0 0 0 0 0 0 0 0 0 0 0 0 0 0 0 0.25 0"/>
<feBlend mode="normal" in2="BackgroundImageFix" result="effect1_dropShadow_862_58"/>
<feColorMatrix in="SourceAlpha" type="matrix" values="0 0 0 0 0 0 0 0 0 0 0 0 0 0 0 0 0 0 127 0" result="hardAlpha"/>
<feOffset dx="3" dy="3"/>
<feGaussianBlur stdDeviation="4"/>
<feComposite in2="hardAlpha" operator="out"/>
<feColorMatrix type="matrix" values="0 0 0 0 0 0 0 0 0 0 0 0 0 0 0 0 0 0 0.25 0"/>
<feBlend mode="normal" in2="effect1_dropShadow_862_58" result="effect2_dropShadow_862_58"/>
<feBlend mode="normal" in="SourceGraphic" in2="effect2_dropShadow_862_58" result="shape"/>
</filter>
</defs>
</svg>
