<svg width="256" height="244" viewBox="0 0 256 244" fill="none" xmlns="http://www.w3.org/2000/svg">
<g filter="url(#filter0_dd_862_58)">
<mask id="mask0_862_58" style="mask-type:alpha" maskUnits="userSpaceOnUse" x="5" y="7" width="240" height="226">
<path d="M236.902 90.4449C228.144 72.0286 217.932 54.3403 206.362 37.5479L202.63 32.1837C198.035 25.5175 192.013 19.9584 185.001 15.9107C177.989 11.863 170.163 9.42821 162.093 8.78333L155.541 8.25532C135.212 6.62323 114.787 6.62323 94.4593 8.25532L87.9071 8.78333C79.8365 9.42821 72.0109 11.863 64.9989 15.9107C57.9871 19.9584 51.965 25.5175 47.3703 32.1837L43.6383 37.5959C32.0679 54.3883 21.8553 72.0766 13.0976 90.4929L10.2776 96.421C6.80283 103.733 5 111.726 5 119.822C5 127.917 6.80283 135.91 10.2776 143.222L13.0976 149.15C21.8553 167.567 32.0679 185.255 43.6383 202.047L47.3703 207.459C51.965 214.125 57.9871 219.685 64.9989 223.733C72.0109 227.78 79.8365 230.215 87.9071 230.86L94.4593 231.388C114.787 233.02 135.212 233.02 155.541 231.388L162.093 230.86C170.169 230.207 177.999 227.761 185.011 223.7C192.024 219.64 198.042 214.067 202.63 207.387L206.362 201.975C217.932 185.183 228.144 167.495 236.902 149.078L239.722 143.15C243.196 135.838 245 127.845 245 119.75C245 111.654 243.196 103.661 239.722 96.349L236.902 90.4449Z" fill="white"/>
</mask>
<g mask="url(#mask0_862_58)">
<rect x="5" width="240" height="240" fill="white"/>
</g>
</g>
<path d="M167.16 76.8931H78.4708C72.6397 76.8931 67.9126 81.6202 67.9126 87.4513V150.801C67.9126 156.632 72.6397 161.359 78.4708 161.359H167.16C172.991 161.359 177.718 156.632 177.718 150.801V87.4513C177.718 81.6202 172.991 76.8931 167.16 76.8931Z" stroke="#2F2F2F" stroke-width="9" stroke-linecap="round" stroke-linejoin="round"/>
<path d="M84.8057 93.7861L122.815 123.349L160.825 93.7861" stroke="#2F2F2F" stroke-width="9" stroke-linecap="round" stroke-linejoin="round"/>
<defs>
<filter id="filter0_dd_862_58" x="0" y="-5" width="256" height="256" filterUnits="userSpaceOnUse" color-interpolation-filters="sRGB">
<feFlood flood-opacity="0" result="BackgroundImageFix"/>
<feColorMatrix in="SourceAlpha" type="matrix" values="0 0 0 0 0 0 0 0 0 0 0 0 0 0 0 0 0 0 127 0" result="hardAlpha"/>
<feOffset dx="3" dy="3"/>
<feGaussianBlur stdDeviation="4"/>
<feComposite in2="hardAlpha" operator="out"/>
<feColorMatrix type="matrix" values="0 0 0 0 0 0 0 0 0 0 0 0 0 0 0 0 0 0 0.25 0"/>
<feBlend mode="normal" in2="BackgroundImageFix" result="effect1_dropShadow_862_58"/>
<feColorMatrix in="SourceAlpha" type="matrix" values="0 0 0 0 0 0 0 0 0 0 0 0 0 0 0 0 0 0 127 0" result="hardAlpha"/>
<feOffset dx="3" dy="3"/>
<feGaussianBlur stdDeviation="4"/>
<feComposite in2="hardAlpha" operator="out"/>
<feColorMatrix type="matrix" values="0 0 0 0 0 0 0 0 0 0 0 0 0 0 0 0 0 0 0.25 0"/>
<feBlend mode="normal" in2="effect1_dropShadow_862_58" result="effect2_dropShadow_862_58"/>
<feBlend mode="normal" in="SourceGraphic" in2="effect2_dropShadow_862_58" result="shape"/>
</filter>
</defs>
</svg>
