<svg width="504" height="108" viewBox="0 0 504 108" fill="none" xmlns="http://www.w3.org/2000/svg">
<path d="M50.408 94.504V97H35.24V93.16C35.24 92.136 35.4107 91.2507 35.752 90.504C36.0933 89.736 36.5733 89.0853 37.192 88.552C37.832 87.9973 38.6 87.5387 39.496 87.176C40.392 86.8133 41.4053 86.504 42.536 86.248C44.4347 85.8213 45.8 85.2133 46.632 84.424C47.4853 83.6347 47.912 82.664 47.912 81.512V81.32C47.912 80.744 47.816 80.1787 47.624 79.624C47.432 79.0693 47.1333 78.568 46.728 78.12C46.3227 77.672 45.8 77.32 45.16 77.064C44.5413 76.7867 43.7947 76.648 42.92 76.648C41.2773 76.648 39.9973 77.1493 39.08 78.152C38.184 79.1547 37.736 80.488 37.736 82.152V83.56H35.048V81.96C35.048 80.936 35.2187 79.9547 35.56 79.016C35.9013 78.0773 36.4027 77.2453 37.064 76.52C37.7253 75.7947 38.5467 75.2187 39.528 74.792C40.5093 74.3653 41.64 74.152 42.92 74.152C44.2213 74.152 45.352 74.3547 46.312 74.76C47.272 75.144 48.072 75.6667 48.712 76.328C49.352 76.968 49.8213 77.704 50.12 78.536C50.44 79.3467 50.6 80.1787 50.6 81.032V81.608C50.6 83.3147 50.0667 84.776 49 85.992C47.9333 87.1867 46.2267 88.04 43.88 88.552C41.832 89 40.328 89.5973 39.368 90.344C38.408 91.0693 37.928 92.136 37.928 93.544V94.504H50.408ZM54.5138 83.304C54.5138 80.4027 55.2071 78.152 56.5938 76.552C57.9804 74.952 59.9111 74.152 62.3858 74.152C64.8604 74.152 66.7911 74.952 68.1778 76.552C69.5644 78.152 70.2578 80.4027 70.2578 83.304V88.296C70.2578 91.2827 69.5644 93.5547 68.1778 95.112C66.7911 96.6693 64.8604 97.448 62.3858 97.448C59.9111 97.448 57.9804 96.6693 56.5938 95.112C55.2071 93.5547 54.5138 91.2827 54.5138 88.296V83.304ZM62.3858 95.016C64.1138 95.016 65.4044 94.4187 66.2578 93.224C67.1324 92.008 67.5698 90.3013 67.5698 88.104V83.496C67.5698 82.472 67.4631 81.544 67.2498 80.712C67.0364 79.8587 66.7058 79.1333 66.2578 78.536C65.8311 77.9173 65.2871 77.4373 64.6258 77.096C63.9858 76.7547 63.2391 76.584 62.3858 76.584C61.5111 76.584 60.7538 76.7547 60.1138 77.096C59.4738 77.4373 58.9298 77.9173 58.4818 78.536C58.0551 79.1333 57.7351 79.8587 57.5218 80.712C57.3084 81.544 57.2018 82.472 57.2018 83.496V88.104C57.2018 90.3013 57.6284 92.008 58.4818 93.224C59.3564 94.4187 60.6578 95.016 62.3858 95.016ZM60.3378 85.8C60.3378 85.2453 60.5404 84.7653 60.9458 84.36C61.3511 83.9547 61.8311 83.752 62.3858 83.752C62.9404 83.752 63.4204 83.9547 63.8258 84.36C64.2311 84.7653 64.4338 85.2453 64.4338 85.8C64.4338 86.3547 64.2311 86.8347 63.8258 87.24C63.4204 87.6453 62.9404 87.848 62.3858 87.848C61.8311 87.848 61.3511 87.6453 60.9458 87.24C60.5404 86.8347 60.3378 86.3547 60.3378 85.8ZM89.5955 94.504V97H74.4275V93.16C74.4275 92.136 74.5982 91.2507 74.9395 90.504C75.2808 89.736 75.7608 89.0853 76.3795 88.552C77.0195 87.9973 77.7875 87.5387 78.6835 87.176C79.5795 86.8133 80.5928 86.504 81.7235 86.248C83.6222 85.8213 84.9875 85.2133 85.8195 84.424C86.6728 83.6347 87.0995 82.664 87.0995 81.512V81.32C87.0995 80.744 87.0035 80.1787 86.8115 79.624C86.6195 79.0693 86.3208 78.568 85.9155 78.12C85.5102 77.672 84.9875 77.32 84.3475 77.064C83.7288 76.7867 82.9822 76.648 82.1075 76.648C80.4648 76.648 79.1848 77.1493 78.2675 78.152C77.3715 79.1547 76.9235 80.488 76.9235 82.152V83.56H74.2355V81.96C74.2355 80.936 74.4062 79.9547 74.7475 79.016C75.0888 78.0773 75.5902 77.2453 76.2515 76.52C76.9128 75.7947 77.7342 75.2187 78.7155 74.792C79.6968 74.3653 80.8275 74.152 82.1075 74.152C83.4088 74.152 84.5395 74.3547 85.4995 74.76C86.4595 75.144 87.2595 75.6667 87.8995 76.328C88.5395 76.968 89.0088 77.704 89.3075 78.536C89.6275 79.3467 89.7875 80.1787 89.7875 81.032V81.608C89.7875 83.3147 89.2542 84.776 88.1875 85.992C87.1208 87.1867 85.4142 88.04 83.0675 88.552C81.0195 89 79.5155 89.5973 78.5555 90.344C77.5955 91.0693 77.1155 92.136 77.1155 93.544V94.504H89.5955ZM109.189 94.504V97H94.0213V93.16C94.0213 92.136 94.1919 91.2507 94.5333 90.504C94.8746 89.736 95.3546 89.0853 95.9733 88.552C96.6133 87.9973 97.3813 87.5387 98.2773 87.176C99.1733 86.8133 100.187 86.504 101.317 86.248C103.216 85.8213 104.581 85.2133 105.413 84.424C106.267 83.6347 106.693 82.664 106.693 81.512V81.32C106.693 80.744 106.597 80.1787 106.405 79.624C106.213 79.0693 105.915 78.568 105.509 78.12C105.104 77.672 104.581 77.32 103.941 77.064C103.323 76.7867 102.576 76.648 101.701 76.648C100.059 76.648 98.7786 77.1493 97.8613 78.152C96.9653 79.1547 96.5173 80.488 96.5173 82.152V83.56H93.8293V81.96C93.8293 80.936 93.9999 79.9547 94.3413 79.016C94.6826 78.0773 95.1839 77.2453 95.8453 76.52C96.5066 75.7947 97.3279 75.2187 98.3093 74.792C99.2906 74.3653 100.421 74.152 101.701 74.152C103.003 74.152 104.133 74.3547 105.093 74.76C106.053 75.144 106.853 75.6667 107.493 76.328C108.133 76.968 108.603 77.704 108.901 78.536C109.221 79.3467 109.381 80.1787 109.381 81.032V81.608C109.381 83.3147 108.848 84.776 107.781 85.992C106.715 87.1867 105.008 88.04 102.661 88.552C100.613 89 99.1093 89.5973 98.1493 90.344C97.1893 91.0693 96.7093 92.136 96.7093 93.544V94.504H109.189ZM145.561 91.432H135.961L134.329 97H131.449L138.233 74.6H143.289L150.073 97H147.193L145.561 91.432ZM140.569 75.752L136.697 88.936H144.825L140.953 75.752H140.569ZM153.347 94.696H159.107V76.904H153.539V74.6H161.603V94.696H167.363V97H153.347V94.696ZM172.94 94.696H178.7V76.904H173.132V74.6H181.196V94.696H186.956V97H172.94V94.696ZM211.232 81.128H216.992V83.24H217.376C217.781 82.3653 218.357 81.7253 219.104 81.32C219.85 80.8933 220.704 80.68 221.664 80.68C223.264 80.68 224.554 81.2027 225.536 82.248C226.517 83.2933 227.04 84.8187 227.104 86.824L224.48 87.208C224.48 85.736 224.128 84.68 223.424 84.04C222.72 83.3787 221.856 83.048 220.832 83.048C220.17 83.048 219.594 83.176 219.104 83.432C218.634 83.688 218.24 84.04 217.92 84.488C217.6 84.936 217.365 85.4587 217.216 86.056C217.066 86.6533 216.992 87.2933 216.992 87.976V94.696H221.024V97H210.848V94.696H214.496V83.432H211.232V81.128ZM236.65 76.392C236.65 75.7733 236.863 75.2507 237.29 74.824C237.738 74.376 238.271 74.152 238.89 74.152C239.508 74.152 240.031 74.376 240.458 74.824C240.906 75.2507 241.13 75.7733 241.13 76.392C241.13 77.0107 240.906 77.544 240.458 77.992C240.031 78.4187 239.508 78.632 238.89 78.632C238.271 78.632 237.738 78.4187 237.29 77.992C236.863 77.544 236.65 77.0107 236.65 76.392ZM232.106 94.696H237.674V83.432H232.682V81.128H240.17V94.696H245.354V97H232.106V94.696ZM263.379 94.568H262.995C262.483 95.528 261.779 96.2533 260.883 96.744C260.009 97.2133 259.049 97.448 258.003 97.448C256.937 97.448 255.934 97.2667 254.995 96.904C254.057 96.5413 253.225 96.0187 252.499 95.336C251.795 94.6533 251.23 93.8107 250.803 92.808C250.398 91.784 250.195 90.6213 250.195 89.32V88.808C250.195 87.528 250.409 86.3867 250.835 85.384C251.262 84.36 251.827 83.5067 252.531 82.824C253.235 82.12 254.057 81.5867 254.995 81.224C255.934 80.8613 256.915 80.68 257.939 80.68C259.091 80.68 260.094 80.936 260.947 81.448C261.822 81.9387 262.505 82.664 262.995 83.624H263.379V81.128H265.875V100.904C265.875 101.629 265.641 102.227 265.171 102.696C264.723 103.165 264.137 103.4 263.411 103.4H253.075V101.096H262.515C263.091 101.096 263.379 100.776 263.379 100.136V94.568ZM258.067 95.08C258.814 95.08 259.507 94.9413 260.147 94.664C260.787 94.3867 261.342 93.992 261.811 93.48C262.302 92.968 262.686 92.36 262.963 91.656C263.241 90.9307 263.379 90.1307 263.379 89.256V88.872C263.379 88.0187 263.241 87.24 262.963 86.536C262.686 85.8107 262.302 85.192 261.811 84.68C261.342 84.168 260.777 83.7733 260.115 83.496C259.475 83.1973 258.793 83.048 258.067 83.048C257.321 83.048 256.617 83.1867 255.955 83.464C255.315 83.7413 254.75 84.136 254.259 84.648C253.79 85.16 253.417 85.768 253.139 86.472C252.883 87.176 252.755 87.9547 252.755 88.808V89.32C252.755 90.216 252.883 91.016 253.139 91.72C253.417 92.424 253.79 93.032 254.259 93.544C254.75 94.0347 255.315 94.4187 255.955 94.696C256.595 94.952 257.299 95.08 258.067 95.08ZM273.405 97H270.909V74.6H273.405V84.008H273.789C274.28 82.984 274.962 82.1733 275.837 81.576C276.733 80.9787 277.821 80.68 279.101 80.68C280.829 80.68 282.226 81.256 283.293 82.408C284.381 83.5387 284.925 85.2453 284.925 87.528V97H282.429V88.04C282.429 86.376 282.056 85.128 281.309 84.296C280.562 83.464 279.549 83.048 278.269 83.048C276.754 83.048 275.56 83.5707 274.685 84.616C273.832 85.64 273.405 87.016 273.405 88.744V97ZM289.959 81.128H294.951V74.6H297.447V81.128H303.591V83.432H297.447V93.736C297.447 94.376 297.735 94.696 298.311 94.696H302.823V97H297.415C296.689 97 296.092 96.7653 295.623 96.296C295.175 95.8267 294.951 95.2293 294.951 94.504V83.432H289.959V81.128ZM313.393 85.224C313.393 85.992 313.713 86.5787 314.353 86.984C315.014 87.3893 316.209 87.656 317.937 87.784C319.793 87.9333 321.201 88.3813 322.161 89.128C323.142 89.8533 323.633 90.92 323.633 92.328V92.52C323.633 93.288 323.473 93.9813 323.153 94.6C322.854 95.1973 322.427 95.7093 321.873 96.136C321.339 96.5627 320.678 96.8827 319.889 97.096C319.121 97.3307 318.278 97.448 317.361 97.448C316.123 97.448 315.057 97.288 314.161 96.968C313.286 96.6267 312.55 96.1893 311.953 95.656C311.377 95.1013 310.939 94.4827 310.641 93.8C310.342 93.096 310.171 92.392 310.129 91.688L312.497 91.112C312.603 92.328 313.073 93.3093 313.905 94.056C314.737 94.7813 315.846 95.144 317.233 95.144C318.406 95.144 319.345 94.92 320.049 94.472C320.774 94.0027 321.137 93.352 321.137 92.52C321.137 91.624 320.785 90.984 320.081 90.6C319.377 90.216 318.235 89.9707 316.657 89.864C314.822 89.736 313.414 89.3093 312.433 88.584C311.451 87.8587 310.961 86.8027 310.961 85.416V85.224C310.961 84.4773 311.121 83.8267 311.441 83.272C311.761 82.696 312.187 82.216 312.721 81.832C313.275 81.448 313.894 81.16 314.577 80.968C315.259 80.776 315.974 80.68 316.72 80.68C317.766 80.68 318.683 80.8293 319.473 81.128C320.262 81.4053 320.923 81.7787 321.457 82.248C321.99 82.696 322.395 83.2187 322.673 83.816C322.971 84.4133 323.163 85.0107 323.249 85.608L320.881 86.184C320.774 85.16 320.358 84.36 319.633 83.784C318.929 83.208 318.001 82.92 316.849 82.92C316.401 82.92 315.963 82.9733 315.536 83.08C315.131 83.1653 314.769 83.304 314.449 83.496C314.129 83.688 313.873 83.9333 313.681 84.232C313.489 84.5093 313.393 84.84 313.393 85.224ZM348.388 81.128H354.148V83.24H354.532C354.937 82.3653 355.513 81.7253 356.26 81.32C357.007 80.8933 357.86 80.68 358.82 80.68C360.42 80.68 361.711 81.2027 362.692 82.248C363.673 83.2933 364.196 84.8187 364.26 86.824L361.636 87.208C361.636 85.736 361.284 84.68 360.58 84.04C359.876 83.3787 359.012 83.048 357.988 83.048C357.327 83.048 356.751 83.176 356.26 83.432C355.791 83.688 355.396 84.04 355.076 84.488C354.756 84.936 354.521 85.4587 354.372 86.056C354.223 86.6533 354.148 87.2933 354.148 87.976V94.696H358.18V97H348.004V94.696H351.652V83.432H348.388V81.128ZM370.702 89.832C370.766 91.4107 371.256 92.68 372.174 93.64C373.091 94.6 374.371 95.08 376.014 95.08C376.76 95.08 377.411 94.9947 377.966 94.824C378.52 94.6533 378.99 94.4187 379.374 94.12C379.779 93.8213 380.099 93.48 380.334 93.096C380.59 92.6907 380.792 92.264 380.942 91.816L383.31 92.456C382.862 93.928 382.03 95.1333 380.814 96.072C379.619 96.9893 377.998 97.448 375.95 97.448C374.819 97.448 373.774 97.256 372.814 96.872C371.875 96.4667 371.064 95.9013 370.382 95.176C369.699 94.4507 369.166 93.5867 368.782 92.584C368.398 91.5813 368.206 90.472 368.206 89.256V88.488C368.206 87.3787 368.398 86.344 368.782 85.384C369.187 84.424 369.742 83.6027 370.446 82.92C371.15 82.216 371.971 81.672 372.91 81.288C373.87 80.8827 374.904 80.68 376.014 80.68C377.315 80.68 378.435 80.9253 379.374 81.416C380.334 81.8853 381.112 82.472 381.71 83.176C382.328 83.88 382.776 84.648 383.054 85.48C383.352 86.312 383.502 87.08 383.502 87.784V89.832H370.702ZM376.014 83.048C375.31 83.048 374.648 83.1653 374.03 83.4C373.432 83.6133 372.899 83.9227 372.43 84.328C371.982 84.7333 371.608 85.2133 371.31 85.768C371.032 86.3013 370.851 86.888 370.766 87.528H381.006C380.963 86.8453 380.792 86.2267 380.494 85.672C380.216 85.1173 379.843 84.648 379.374 84.264C378.926 83.88 378.403 83.5813 377.806 83.368C377.23 83.1547 376.632 83.048 376.014 83.048ZM391.768 85.224C391.768 85.992 392.088 86.5787 392.728 86.984C393.389 87.3893 394.584 87.656 396.312 87.784C398.168 87.9333 399.576 88.3813 400.536 89.128C401.517 89.8533 402.008 90.92 402.008 92.328V92.52C402.008 93.288 401.848 93.9813 401.528 94.6C401.229 95.1973 400.802 95.7093 400.248 96.136C399.714 96.5627 399.053 96.8827 398.264 97.096C397.496 97.3307 396.653 97.448 395.736 97.448C394.498 97.448 393.432 97.288 392.536 96.968C391.661 96.6267 390.925 96.1893 390.328 95.656C389.752 95.1013 389.314 94.4827 389.016 93.8C388.717 93.096 388.546 92.392 388.504 91.688L390.872 91.112C390.978 92.328 391.448 93.3093 392.28 94.056C393.112 94.7813 394.221 95.144 395.608 95.144C396.781 95.144 397.72 94.92 398.424 94.472C399.149 94.0027 399.512 93.352 399.512 92.52C399.512 91.624 399.16 90.984 398.456 90.6C397.752 90.216 396.61 89.9707 395.032 89.864C393.197 89.736 391.789 89.3093 390.808 88.584C389.826 87.8587 389.336 86.8027 389.336 85.416V85.224C389.336 84.4773 389.496 83.8267 389.816 83.272C390.136 82.696 390.562 82.216 391.096 81.832C391.65 81.448 392.269 81.16 392.952 80.968C393.634 80.776 394.349 80.68 395.095 80.68C396.141 80.68 397.058 80.8293 397.848 81.128C398.637 81.4053 399.298 81.7787 399.832 82.248C400.365 82.696 400.77 83.2187 401.048 83.816C401.346 84.4133 401.538 85.0107 401.624 85.608L399.256 86.184C399.149 85.16 398.733 84.36 398.008 83.784C397.304 83.208 396.376 82.92 395.224 82.92C394.776 82.92 394.338 82.9733 393.911 83.08C393.506 83.1653 393.144 83.304 392.824 83.496C392.504 83.688 392.248 83.9333 392.056 84.232C391.864 84.5093 391.768 84.84 391.768 85.224ZM409.889 89.832C409.953 91.4107 410.444 92.68 411.361 93.64C412.279 94.6 413.559 95.08 415.201 95.08C415.948 95.08 416.599 94.9947 417.153 94.824C417.708 94.6533 418.177 94.4187 418.561 94.12C418.967 93.8213 419.287 93.48 419.521 93.096C419.777 92.6907 419.98 92.264 420.129 91.816L422.497 92.456C422.049 93.928 421.217 95.1333 420.001 96.072C418.807 96.9893 417.185 97.448 415.137 97.448C414.007 97.448 412.961 97.256 412.001 96.872C411.063 96.4667 410.252 95.9013 409.569 95.176C408.887 94.4507 408.353 93.5867 407.969 92.584C407.585 91.5813 407.393 90.472 407.393 89.256V88.488C407.393 87.3787 407.585 86.344 407.969 85.384C408.375 84.424 408.929 83.6027 409.633 82.92C410.337 82.216 411.159 81.672 412.097 81.288C413.057 80.8827 414.092 80.68 415.201 80.68C416.503 80.68 417.623 80.9253 418.561 81.416C419.521 81.8853 420.3 82.472 420.897 83.176C421.516 83.88 421.964 84.648 422.241 85.48C422.54 86.312 422.689 87.08 422.689 87.784V89.832H409.889ZM415.201 83.048C414.497 83.048 413.836 83.1653 413.217 83.4C412.62 83.6133 412.087 83.9227 411.617 84.328C411.169 84.7333 410.796 85.2133 410.497 85.768C410.22 86.3013 410.039 86.888 409.953 87.528H420.193C420.151 86.8453 419.98 86.2267 419.681 85.672C419.404 85.1173 419.031 84.648 418.561 84.264C418.113 83.88 417.591 83.5813 416.993 83.368C416.417 83.1547 415.82 83.048 415.201 83.048ZM426.763 81.128H432.523V83.24H432.907C433.312 82.3653 433.888 81.7253 434.635 81.32C435.382 80.8933 436.235 80.68 437.195 80.68C438.795 80.68 440.086 81.2027 441.067 82.248C442.048 83.2933 442.571 84.8187 442.635 86.824L440.011 87.208C440.011 85.736 439.659 84.68 438.955 84.04C438.251 83.3787 437.387 83.048 436.363 83.048C435.702 83.048 435.126 83.176 434.635 83.432C434.166 83.688 433.771 84.04 433.451 84.488C433.131 84.936 432.896 85.4587 432.747 86.056C432.598 86.6533 432.523 87.2933 432.523 87.976V94.696H436.555V97H426.379V94.696H430.027V83.432H426.763V81.128ZM456.693 97H451.765L446.229 81.128H449.173L454.037 95.848H454.421L459.285 81.128H462.229L456.693 97ZM468.671 89.832C468.735 91.4107 469.225 92.68 470.143 93.64C471.06 94.6 472.34 95.08 473.983 95.08C474.729 95.08 475.38 94.9947 475.935 94.824C476.489 94.6533 476.959 94.4187 477.343 94.12C477.748 93.8213 478.068 93.48 478.303 93.096C478.559 92.6907 478.761 92.264 478.911 91.816L481.279 92.456C480.831 93.928 479.999 95.1333 478.783 96.072C477.588 96.9893 475.967 97.448 473.919 97.448C472.788 97.448 471.743 97.256 470.783 96.872C469.844 96.4667 469.033 95.9013 468.351 95.176C467.668 94.4507 467.135 93.5867 466.751 92.584C466.367 91.5813 466.174 90.472 466.174 89.256V88.488C466.174 87.3787 466.367 86.344 466.751 85.384C467.156 84.424 467.711 83.6027 468.415 82.92C469.119 82.216 469.94 81.672 470.879 81.288C471.839 80.8827 472.873 80.68 473.983 80.68C475.284 80.68 476.404 80.9253 477.343 81.416C478.303 81.8853 479.081 82.472 479.679 83.176C480.297 83.88 480.745 84.648 481.023 85.48C481.321 86.312 481.471 87.08 481.471 87.784V89.832H468.671ZM473.983 83.048C473.279 83.048 472.617 83.1653 471.999 83.4C471.401 83.6133 470.868 83.9227 470.399 84.328C469.951 84.7333 469.577 85.2133 469.279 85.768C469.001 86.3013 468.82 86.888 468.735 87.528H478.975C478.932 86.8453 478.761 86.2267 478.463 85.672C478.185 85.1173 477.812 84.648 477.343 84.264C476.895 83.88 476.372 83.5813 475.775 83.368C475.199 83.1547 474.601 83.048 473.983 83.048ZM498.728 94.568H498.344C498.088 95.0587 497.758 95.4853 497.352 95.848C496.968 96.2107 496.542 96.5093 496.072 96.744C495.624 96.9787 495.144 97.1493 494.632 97.256C494.12 97.384 493.63 97.448 493.16 97.448C492.094 97.448 491.102 97.2667 490.184 96.904C489.267 96.5413 488.456 96.0187 487.752 95.336C487.07 94.6533 486.526 93.8107 486.12 92.808C485.736 91.784 485.544 90.6213 485.544 89.32V88.808C485.544 87.528 485.747 86.3867 486.152 85.384C486.558 84.36 487.102 83.5067 487.784 82.824C488.467 82.12 489.267 81.5867 490.184 81.224C491.102 80.8613 492.072 80.68 493.096 80.68C494.184 80.68 495.198 80.9253 496.136 81.416C497.096 81.8853 497.832 82.6213 498.344 83.624H498.728V74.6H501.224V97H498.728V94.568ZM493.416 95.08C494.163 95.08 494.856 94.9413 495.496 94.664C496.136 94.3867 496.691 93.992 497.16 93.48C497.651 92.968 498.035 92.36 498.312 91.656C498.59 90.9307 498.728 90.1307 498.728 89.256V88.872C498.728 88.0187 498.59 87.24 498.312 86.536C498.035 85.8107 497.651 85.192 497.16 84.68C496.691 84.168 496.126 83.7733 495.464 83.496C494.824 83.1973 494.142 83.048 493.416 83.048C492.67 83.048 491.966 83.1867 491.304 83.464C490.664 83.7413 490.099 84.136 489.608 84.648C489.139 85.16 488.766 85.768 488.488 86.472C488.232 87.176 488.104 87.9547 488.104 88.808V89.32C488.104 90.216 488.232 91.016 488.488 91.72C488.766 92.424 489.139 93.032 489.608 93.544C490.099 94.0347 490.664 94.4187 491.304 94.696C491.944 94.952 492.648 95.08 493.416 95.08Z" fill="black"/>
<path d="M2.9 82.2C2.9 80.5 3.21667 78.9 3.85 77.4C4.51667 75.8667 5.4 74.55 6.5 73.45C7.63333 72.3167 8.95 71.4333 10.45 70.8C11.9833 70.1333 13.6 69.8 15.3 69.8C17 69.8 18.6 70.1333 20.1 70.8C21.6333 71.4333 22.95 72.3167 24.05 73.45C25.1833 74.55 26.0667 75.8667 26.7 77.4C27.3667 78.9 27.7 80.5 27.7 82.2C27.7 83.9 27.3667 85.5167 26.7 87.05C26.0667 88.55 25.1833 89.8667 24.05 91C22.95 92.1 21.6333 92.9833 20.1 93.65C18.6 94.2833 17 94.6 15.3 94.6C13.6 94.6 11.9833 94.2833 10.45 93.65C8.95 92.9833 7.63333 92.1 6.5 91C5.4 89.8667 4.51667 88.55 3.85 87.05C3.21667 85.5167 2.9 83.9 2.9 82.2ZM5.3 82.2C5.3 83.6 5.55 84.9167 6.05 86.15C6.58333 87.35 7.3 88.4 8.2 89.3C9.1 90.2 10.15 90.9167 11.35 91.45C12.5833 91.95 13.9 92.2 15.3 92.2C16.7 92.2 18 91.95 19.2 91.45C20.4333 90.9167 21.5 90.2 22.4 89.3C23.3 88.4 24 87.35 24.5 86.15C25.0333 84.9167 25.3 83.6 25.3 82.2C25.3 80.8 25.0333 79.5 24.5 78.3C24 77.0667 23.3 76 22.4 75.1C21.5 74.2 20.4333 73.5 19.2 73C18 72.4667 16.7 72.2 15.3 72.2C13.9 72.2 12.5833 72.4667 11.35 73C10.15 73.5 9.1 74.2 8.2 75.1C7.3 76 6.58333 77.0667 6.05 78.3C5.55 79.5 5.3 80.8 5.3 82.2ZM15.3 87.3C16.0667 87.3 16.6667 87.0667 17.1 86.6C17.5333 86.1 17.75 85.4833 17.75 84.75V83.85H20.45V84.45C20.45 85.9833 20.0167 87.25 19.15 88.25C18.2833 89.2167 17 89.7 15.3 89.7C13.6333 89.7 12.3333 89.2167 11.4 88.25C10.5 87.25 10.05 85.9833 10.05 84.45V79.95C10.05 78.4167 10.5167 77.1667 11.45 76.2C12.3833 75.2 13.6667 74.7 15.3 74.7C17 74.7 18.2833 75.2 19.15 76.2C20.0167 77.1667 20.45 78.4167 20.45 79.95V80.55H17.75V79.65C17.75 78.9167 17.5333 78.3167 17.1 77.85C16.6667 77.35 16.0667 77.1 15.3 77.1C14.5333 77.1 13.9167 77.35 13.45 77.85C12.9833 78.3167 12.75 78.9167 12.75 79.65V84.75C12.75 85.4833 12.9833 86.1 13.45 86.6C13.9167 87.0667 14.5333 87.3 15.3 87.3Z" fill="black"/>
<path d="M210.161 26.1524C209.522 28.46 206.743 30.0625 203.228 30.0625C198.66 30.0625 195.689 27.0498 195.689 22.4347V20.5117H218.404V15.6402C218.404 6.15352 212.429 0 203.101 0C193.516 0 187.127 6.12147 187.127 15.3838V21.0566C187.127 31.0881 193.005 36.857 203.26 36.857C211.439 36.857 217.669 32.4021 218.404 26.1524H210.161ZM202.941 6.79451C207.35 6.79451 209.969 9.83922 209.969 14.903H195.689C195.689 9.83922 198.404 6.79451 202.941 6.79451Z" fill="black"/>
<path d="M242.971 36.6968C246.837 36.6968 250 33.4277 250 29.4856C250 25.5115 246.837 22.2424 242.971 22.2424C239.106 22.2424 235.943 25.5115 235.943 29.4856C235.943 33.4277 239.106 36.6968 242.971 36.6968Z" fill="black"/>
<path d="M122.108 36.605L178.958 36.7233V9.86837H165.582V23.2959H135.484V9.86837H122.108V36.605Z" fill="url(#paint0_linear_1441_887)"/>
<path d="M3.76675 11.2071C3.76675 16.6555 7.12127 20.1169 13.7345 21.5591L19.0059 22.6808C22.7118 23.4821 24.0536 24.4436 24.0536 26.4306C24.0536 28.7382 21.7534 30.2445 18.1752 30.2445C14.5332 30.2445 12.169 28.8985 11.6259 26.4627H3C3.47922 33.097 9.03814 36.9749 18.0474 36.9749C27.2164 36.9749 33.0309 32.456 33.0309 25.3089C33.0309 19.9246 29.8681 16.8799 22.7437 15.4056L17.2807 14.2839C13.8623 13.5788 12.3927 12.425 12.3927 10.502C12.3927 8.25853 14.5971 6.7522 17.9196 6.7522C21.1783 6.7522 23.4785 8.19443 23.8939 10.5341H32.1364C31.7211 3.89979 26.5136 0.0538433 17.9835 0.0538433C9.26177 0.0538433 3.76675 4.34849 3.76675 11.2071Z" fill="black"/>
<path d="M62.391 0.342289C57.2474 0.342289 53.7651 2.71396 52.5191 6.97655H51.8482V0.887132H42.8709V48H51.976V30.2445H52.6149C53.797 34.4751 57.3113 36.8467 62.391 36.8467C70.4738 36.8467 75.234 31.2701 75.234 21.6232V15.5338C75.234 5.91891 70.4738 0.342289 62.391 0.342289ZM59.0365 7.97009C63.5411 7.97009 66.3206 10.9507 66.3206 15.7902V21.6553C66.3206 26.4947 63.5411 29.4753 59.0365 29.4753C54.4999 29.4753 51.7524 26.5268 51.7524 21.6553V15.7902C51.7524 10.9186 54.4999 7.97009 59.0365 7.97009Z" fill="black"/>
<path d="M94.1471 36.8147C98.7476 36.8147 102.454 34.8597 104.179 31.5265H104.945V36.2378H113.252V12.2647C113.252 4.54078 108.172 0.214091 99.131 0.214091C90.7606 0.214091 84.9781 4.34849 84.3391 10.7584H92.8372C93.572 8.54698 95.8403 7.2009 98.8754 7.2009C102.485 7.2009 104.594 8.99567 104.594 12.0724V14.8928L96.3515 15.4056C87.6617 16.0145 83.0293 19.7643 83.0293 26.1422C83.0293 32.5201 87.502 36.8147 94.1471 36.8147ZM97.1502 29.7958C93.7637 29.7958 91.6552 28.1293 91.6552 25.5012C91.6552 22.777 93.7318 21.2066 97.8211 20.9502L104.594 20.5335V23.0975C104.594 27.0396 101.495 29.7958 97.1502 29.7958Z" fill="black"/>
<defs>
<linearGradient id="paint0_linear_1441_887" x1="250" y1="48" x2="124.432" y2="-101.793" gradientUnits="userSpaceOnUse">
<stop stop-color="#0209B5"/>
<stop offset="1" stop-color="#00F0FF"/>
</linearGradient>
</defs>
</svg>
