<svg width="510" height="101" viewBox="0 0 510 101" fill="none" xmlns="http://www.w3.org/2000/svg">
<path d="M1.856 72.208C1.856 71.12 2.05867 70.096 2.464 69.136C2.89067 68.1547 3.456 67.312 4.16 66.608C4.88533 65.8827 5.728 65.3173 6.688 64.912C7.66933 64.4853 8.704 64.272 9.792 64.272C10.88 64.272 11.904 64.4853 12.864 64.912C13.8453 65.3173 14.688 65.8827 15.392 66.608C16.1173 67.312 16.6827 68.1547 17.088 69.136C17.5147 70.096 17.728 71.12 17.728 72.208C17.728 73.296 17.5147 74.3307 17.088 75.312C16.6827 76.272 16.1173 77.1147 15.392 77.84C14.688 78.544 13.8453 79.1093 12.864 79.536C11.904 79.9413 10.88 80.144 9.792 80.144C8.704 80.144 7.66933 79.9413 6.688 79.536C5.728 79.1093 4.88533 78.544 4.16 77.84C3.456 77.1147 2.89067 76.272 2.464 75.312C2.05867 74.3307 1.856 73.296 1.856 72.208ZM3.392 72.208C3.392 73.104 3.552 73.9467 3.872 74.736C4.21333 75.504 4.672 76.176 5.248 76.752C5.824 77.328 6.496 77.7867 7.264 78.128C8.05333 78.448 8.896 78.608 9.792 78.608C10.688 78.608 11.52 78.448 12.288 78.128C13.0773 77.7867 13.76 77.328 14.336 76.752C14.912 76.176 15.36 75.504 15.68 74.736C16.0213 73.9467 16.192 73.104 16.192 72.208C16.192 71.312 16.0213 70.48 15.68 69.712C15.36 68.9227 14.912 68.24 14.336 67.664C13.76 67.088 13.0773 66.64 12.288 66.32C11.52 65.9787 10.688 65.808 9.792 65.808C8.896 65.808 8.05333 65.9787 7.264 66.32C6.496 66.64 5.824 67.088 5.248 67.664C4.672 68.24 4.21333 68.9227 3.872 69.712C3.552 70.48 3.392 71.312 3.392 72.208ZM9.792 75.472C10.2827 75.472 10.6667 75.3227 10.944 75.024C11.2213 74.704 11.36 74.3093 11.36 73.84V73.264H13.088V73.648C13.088 74.6293 12.8107 75.44 12.256 76.08C11.7013 76.6987 10.88 77.008 9.792 77.008C8.72533 77.008 7.89333 76.6987 7.296 76.08C6.72 75.44 6.432 74.6293 6.432 73.648V70.768C6.432 69.7867 6.73067 68.9867 7.328 68.368C7.92533 67.728 8.74667 67.408 9.792 67.408C10.88 67.408 11.7013 67.728 12.256 68.368C12.8107 68.9867 13.088 69.7867 13.088 70.768V71.152H11.36V70.576C11.36 70.1067 11.2213 69.7227 10.944 69.424C10.6667 69.104 10.2827 68.944 9.792 68.944C9.30133 68.944 8.90667 69.104 8.608 69.424C8.30933 69.7227 8.16 70.1067 8.16 70.576V73.84C8.16 74.3093 8.30933 74.704 8.608 75.024C8.90667 75.3227 9.30133 75.472 9.792 75.472ZM56.5955 87.504V90H41.4275V86.16C41.4275 85.136 41.5982 84.2507 41.9395 83.504C42.2808 82.736 42.7608 82.0853 43.3795 81.552C44.0195 80.9973 44.7875 80.5387 45.6835 80.176C46.5795 79.8133 47.5928 79.504 48.7235 79.248C50.6222 78.8213 51.9875 78.2133 52.8195 77.424C53.6728 76.6347 54.0995 75.664 54.0995 74.512V74.32C54.0995 73.744 54.0035 73.1787 53.8115 72.624C53.6195 72.0693 53.3208 71.568 52.9155 71.12C52.5102 70.672 51.9875 70.32 51.3475 70.064C50.7288 69.7867 49.9822 69.648 49.1075 69.648C47.4648 69.648 46.1848 70.1493 45.2675 71.152C44.3715 72.1547 43.9235 73.488 43.9235 75.152V76.56H41.2355V74.96C41.2355 73.936 41.4062 72.9547 41.7475 72.016C42.0888 71.0773 42.5902 70.2453 43.2515 69.52C43.9128 68.7947 44.7342 68.2187 45.7155 67.792C46.6968 67.3653 47.8275 67.152 49.1075 67.152C50.4088 67.152 51.5395 67.3547 52.4995 67.76C53.4595 68.144 54.2595 68.6667 54.8995 69.328C55.5395 69.968 56.0088 70.704 56.3075 71.536C56.6275 72.3467 56.7875 73.1787 56.7875 74.032V74.608C56.7875 76.3147 56.2542 77.776 55.1875 78.992C54.1208 80.1867 52.4142 81.04 50.0675 81.552C48.0195 82 46.5155 82.5973 45.5555 83.344C44.5955 84.0693 44.1155 85.136 44.1155 86.544V87.504H56.5955ZM60.7013 76.304C60.7013 73.4027 61.3946 71.152 62.7812 69.552C64.1679 67.952 66.0986 67.152 68.5733 67.152C71.0479 67.152 72.9786 67.952 74.3653 69.552C75.7519 71.152 76.4453 73.4027 76.4453 76.304V81.296C76.4453 84.2827 75.7519 86.5547 74.3653 88.112C72.9786 89.6693 71.0479 90.448 68.5733 90.448C66.0986 90.448 64.1679 89.6693 62.7812 88.112C61.3946 86.5547 60.7013 84.2827 60.7013 81.296V76.304ZM68.5733 88.016C70.3013 88.016 71.5919 87.4187 72.4453 86.224C73.3199 85.008 73.7573 83.3013 73.7573 81.104V76.496C73.7573 75.472 73.6506 74.544 73.4373 73.712C73.2239 72.8587 72.8933 72.1333 72.4453 71.536C72.0186 70.9173 71.4746 70.4373 70.8133 70.096C70.1733 69.7547 69.4266 69.584 68.5733 69.584C67.6986 69.584 66.9413 69.7547 66.3013 70.096C65.6613 70.4373 65.1173 70.9173 64.6693 71.536C64.2426 72.1333 63.9226 72.8587 63.7093 73.712C63.4959 74.544 63.3893 75.472 63.3893 76.496V81.104C63.3893 83.3013 63.8159 85.008 64.6693 86.224C65.5439 87.4187 66.8453 88.016 68.5733 88.016ZM66.5253 78.8C66.5253 78.2453 66.7279 77.7653 67.1333 77.36C67.5386 76.9547 68.0186 76.752 68.5733 76.752C69.1279 76.752 69.6079 76.9547 70.0133 77.36C70.4186 77.7653 70.6213 78.2453 70.6213 78.8C70.6213 79.3547 70.4186 79.8347 70.0133 80.24C69.6079 80.6453 69.1279 80.848 68.5733 80.848C68.0186 80.848 67.5386 80.6453 67.1333 80.24C66.7279 79.8347 66.5253 79.3547 66.5253 78.8ZM95.783 87.504V90H80.615V86.16C80.615 85.136 80.7857 84.2507 81.127 83.504C81.4683 82.736 81.9483 82.0853 82.567 81.552C83.207 80.9973 83.975 80.5387 84.871 80.176C85.767 79.8133 86.7803 79.504 87.911 79.248C89.8097 78.8213 91.175 78.2133 92.007 77.424C92.8603 76.6347 93.287 75.664 93.287 74.512V74.32C93.287 73.744 93.191 73.1787 92.999 72.624C92.807 72.0693 92.5083 71.568 92.103 71.12C91.6977 70.672 91.175 70.32 90.535 70.064C89.9163 69.7867 89.1697 69.648 88.295 69.648C86.6523 69.648 85.3723 70.1493 84.455 71.152C83.559 72.1547 83.111 73.488 83.111 75.152V76.56H80.423V74.96C80.423 73.936 80.5937 72.9547 80.935 72.016C81.2763 71.0773 81.7777 70.2453 82.439 69.52C83.1003 68.7947 83.9217 68.2187 84.903 67.792C85.8843 67.3653 87.015 67.152 88.295 67.152C89.5963 67.152 90.727 67.3547 91.687 67.76C92.647 68.144 93.447 68.6667 94.087 69.328C94.727 69.968 95.1963 70.704 95.495 71.536C95.815 72.3467 95.975 73.1787 95.975 74.032V74.608C95.975 76.3147 95.4417 77.776 94.375 78.992C93.3083 80.1867 91.6017 81.04 89.255 81.552C87.207 82 85.703 82.5973 84.743 83.344C83.783 84.0693 83.303 85.136 83.303 86.544V87.504H95.783ZM115.377 87.504V90H100.209V86.16C100.209 85.136 100.379 84.2507 100.721 83.504C101.062 82.736 101.542 82.0853 102.161 81.552C102.801 80.9973 103.569 80.5387 104.465 80.176C105.361 79.8133 106.374 79.504 107.505 79.248C109.403 78.8213 110.769 78.2133 111.601 77.424C112.454 76.6347 112.881 75.664 112.881 74.512V74.32C112.881 73.744 112.785 73.1787 112.593 72.624C112.401 72.0693 112.102 71.568 111.697 71.12C111.291 70.672 110.769 70.32 110.129 70.064C109.51 69.7867 108.763 69.648 107.889 69.648C106.246 69.648 104.966 70.1493 104.049 71.152C103.153 72.1547 102.705 73.488 102.705 75.152V76.56H100.017V74.96C100.017 73.936 100.187 72.9547 100.529 72.016C100.87 71.0773 101.371 70.2453 102.033 69.52C102.694 68.7947 103.515 68.2187 104.497 67.792C105.478 67.3653 106.609 67.152 107.889 67.152C109.19 67.152 110.321 67.3547 111.281 67.76C112.241 68.144 113.041 68.6667 113.681 69.328C114.321 69.968 114.79 70.704 115.089 71.536C115.409 72.3467 115.569 73.1787 115.569 74.032V74.608C115.569 76.3147 115.035 77.776 113.969 78.992C112.902 80.1867 111.195 81.04 108.849 81.552C106.801 82 105.297 82.5973 104.337 83.344C103.377 84.0693 102.897 85.136 102.897 86.544V87.504H115.377ZM151.748 84.432H142.148L140.516 90H137.636L144.42 67.6H149.476L156.26 90H153.38L151.748 84.432ZM146.756 68.752L142.884 81.936H151.012L147.14 68.752H146.756ZM159.534 87.696H165.294V69.904H159.726V67.6H167.79V87.696H173.55V90H159.534V87.696ZM179.128 87.696H184.888V69.904H179.32V67.6H187.384V87.696H193.144V90H179.128V87.696ZM217.419 74.128H223.179V76.24H223.563C223.969 75.3653 224.545 74.7253 225.291 74.32C226.038 73.8933 226.891 73.68 227.851 73.68C229.451 73.68 230.742 74.2027 231.723 75.248C232.705 76.2933 233.227 77.8187 233.291 79.824L230.667 80.208C230.667 78.736 230.315 77.68 229.611 77.04C228.907 76.3787 228.043 76.048 227.019 76.048C226.358 76.048 225.782 76.176 225.291 76.432C224.822 76.688 224.427 77.04 224.107 77.488C223.787 77.936 223.553 78.4587 223.403 79.056C223.254 79.6533 223.179 80.2933 223.179 80.976V87.696H227.211V90H217.035V87.696H220.683V76.432H217.419V74.128ZM242.837 69.392C242.837 68.7733 243.05 68.2507 243.477 67.824C243.925 67.376 244.458 67.152 245.077 67.152C245.696 67.152 246.218 67.376 246.645 67.824C247.093 68.2507 247.317 68.7733 247.317 69.392C247.317 70.0107 247.093 70.544 246.645 70.992C246.218 71.4187 245.696 71.632 245.077 71.632C244.458 71.632 243.925 71.4187 243.477 70.992C243.05 70.544 242.837 70.0107 242.837 69.392ZM238.293 87.696H243.861V76.432H238.869V74.128H246.357V87.696H251.541V90H238.293V87.696ZM269.567 87.568H269.183C268.671 88.528 267.967 89.2533 267.071 89.744C266.196 90.2133 265.236 90.448 264.191 90.448C263.124 90.448 262.121 90.2667 261.183 89.904C260.244 89.5413 259.412 89.0187 258.687 88.336C257.983 87.6533 257.417 86.8107 256.991 85.808C256.585 84.784 256.383 83.6213 256.383 82.32V81.808C256.383 80.528 256.596 79.3867 257.023 78.384C257.449 77.36 258.015 76.5067 258.719 75.824C259.423 75.12 260.244 74.5867 261.183 74.224C262.121 73.8613 263.103 73.68 264.127 73.68C265.279 73.68 266.281 73.936 267.135 74.448C268.009 74.9387 268.692 75.664 269.183 76.624H269.567V74.128H272.063V93.904C272.063 94.6293 271.828 95.2267 271.359 95.696C270.911 96.1653 270.324 96.4 269.599 96.4H259.263V94.096H268.703C269.279 94.096 269.567 93.776 269.567 93.136V87.568ZM264.255 88.08C265.001 88.08 265.695 87.9413 266.335 87.664C266.975 87.3867 267.529 86.992 267.999 86.48C268.489 85.968 268.873 85.36 269.151 84.656C269.428 83.9307 269.567 83.1307 269.567 82.256V81.872C269.567 81.0187 269.428 80.24 269.151 79.536C268.873 78.8107 268.489 78.192 267.999 77.68C267.529 77.168 266.964 76.7733 266.303 76.496C265.663 76.1973 264.98 76.048 264.255 76.048C263.508 76.048 262.804 76.1867 262.143 76.464C261.503 76.7413 260.937 77.136 260.447 77.648C259.977 78.16 259.604 78.768 259.327 79.472C259.071 80.176 258.943 80.9547 258.943 81.808V82.32C258.943 83.216 259.071 84.016 259.327 84.72C259.604 85.424 259.977 86.032 260.447 86.544C260.937 87.0347 261.503 87.4187 262.143 87.696C262.783 87.952 263.487 88.08 264.255 88.08ZM279.593 90H277.097V67.6H279.593V77.008H279.977C280.467 75.984 281.15 75.1733 282.025 74.576C282.921 73.9787 284.009 73.68 285.289 73.68C287.017 73.68 288.414 74.256 289.481 75.408C290.569 76.5387 291.113 78.2453 291.113 80.528V90H288.617V81.04C288.617 79.376 288.243 78.128 287.497 77.296C286.75 76.464 285.737 76.048 284.457 76.048C282.942 76.048 281.747 76.5707 280.873 77.616C280.019 78.64 279.593 80.016 279.593 81.744V90ZM296.146 74.128H301.138V67.6H303.634V74.128H309.778V76.432H303.634V86.736C303.634 87.376 303.922 87.696 304.498 87.696H309.01V90H303.602C302.877 90 302.28 89.7653 301.81 89.296C301.362 88.8267 301.138 88.2293 301.138 87.504V76.432H296.146V74.128ZM319.58 78.224C319.58 78.992 319.9 79.5787 320.54 79.984C321.201 80.3893 322.396 80.656 324.124 80.784C325.98 80.9333 327.388 81.3813 328.348 82.128C329.329 82.8533 329.82 83.92 329.82 85.328V85.52C329.82 86.288 329.66 86.9813 329.34 87.6C329.041 88.1973 328.615 88.7093 328.06 89.136C327.527 89.5627 326.865 89.8827 326.076 90.096C325.308 90.3307 324.465 90.448 323.548 90.448C322.311 90.448 321.244 90.288 320.348 89.968C319.473 89.6267 318.737 89.1893 318.14 88.656C317.564 88.1013 317.127 87.4827 316.828 86.8C316.529 86.096 316.359 85.392 316.316 84.688L318.684 84.112C318.791 85.328 319.26 86.3093 320.092 87.056C320.924 87.7813 322.033 88.144 323.42 88.144C324.593 88.144 325.532 87.92 326.236 87.472C326.961 87.0027 327.324 86.352 327.324 85.52C327.324 84.624 326.972 83.984 326.268 83.6C325.564 83.216 324.423 82.9707 322.844 82.864C321.009 82.736 319.601 82.3093 318.62 81.584C317.639 80.8587 317.148 79.8027 317.148 78.416V78.224C317.148 77.4773 317.308 76.8267 317.628 76.272C317.948 75.696 318.375 75.216 318.908 74.832C319.463 74.448 320.081 74.16 320.764 73.968C321.447 73.776 322.161 73.68 322.908 73.68C323.953 73.68 324.871 73.8293 325.66 74.128C326.449 74.4053 327.111 74.7787 327.644 75.248C328.177 75.696 328.583 76.2187 328.86 76.816C329.159 77.4133 329.351 78.0107 329.436 78.608L327.068 79.184C326.961 78.16 326.545 77.36 325.82 76.784C325.116 76.208 324.188 75.92 323.036 75.92C322.588 75.92 322.151 75.9733 321.724 76.08C321.319 76.1653 320.956 76.304 320.636 76.496C320.316 76.688 320.06 76.9333 319.868 77.232C319.676 77.5093 319.58 77.84 319.58 78.224ZM354.576 74.128H360.336V76.24H360.72C361.125 75.3653 361.701 74.7253 362.448 74.32C363.194 73.8933 364.048 73.68 365.008 73.68C366.608 73.68 367.898 74.2027 368.88 75.248C369.861 76.2933 370.384 77.8187 370.448 79.824L367.824 80.208C367.824 78.736 367.472 77.68 366.768 77.04C366.064 76.3787 365.2 76.048 364.176 76.048C363.514 76.048 362.938 76.176 362.448 76.432C361.978 76.688 361.584 77.04 361.264 77.488C360.944 77.936 360.709 78.4587 360.56 79.056C360.41 79.6533 360.336 80.2933 360.336 80.976V87.696H364.368V90H354.192V87.696H357.84V76.432H354.576V74.128ZM376.889 82.832C376.953 84.4107 377.444 85.68 378.361 86.64C379.279 87.6 380.559 88.08 382.201 88.08C382.948 88.08 383.599 87.9947 384.153 87.824C384.708 87.6533 385.177 87.4187 385.561 87.12C385.967 86.8213 386.287 86.48 386.521 86.096C386.777 85.6907 386.98 85.264 387.129 84.816L389.497 85.456C389.049 86.928 388.217 88.1333 387.001 89.072C385.807 89.9893 384.185 90.448 382.137 90.448C381.007 90.448 379.961 90.256 379.001 89.872C378.063 89.4667 377.252 88.9013 376.569 88.176C375.887 87.4507 375.353 86.5867 374.969 85.584C374.585 84.5813 374.393 83.472 374.393 82.256V81.488C374.393 80.3787 374.585 79.344 374.969 78.384C375.375 77.424 375.929 76.6027 376.633 75.92C377.337 75.216 378.159 74.672 379.097 74.288C380.057 73.8827 381.092 73.68 382.201 73.68C383.503 73.68 384.623 73.9253 385.561 74.416C386.521 74.8853 387.3 75.472 387.897 76.176C388.516 76.88 388.964 77.648 389.241 78.48C389.54 79.312 389.689 80.08 389.689 80.784V82.832H376.889ZM382.201 76.048C381.497 76.048 380.836 76.1653 380.217 76.4C379.62 76.6133 379.087 76.9227 378.617 77.328C378.169 77.7333 377.796 78.2133 377.497 78.768C377.22 79.3013 377.039 79.888 376.953 80.528H387.193C387.151 79.8453 386.98 79.2267 386.681 78.672C386.404 78.1173 386.031 77.648 385.561 77.264C385.113 76.88 384.591 76.5813 383.993 76.368C383.417 76.1547 382.82 76.048 382.201 76.048ZM397.955 78.224C397.955 78.992 398.275 79.5787 398.915 79.984C399.576 80.3893 400.771 80.656 402.499 80.784C404.355 80.9333 405.763 81.3813 406.723 82.128C407.704 82.8533 408.195 83.92 408.195 85.328V85.52C408.195 86.288 408.035 86.9813 407.715 87.6C407.416 88.1973 406.99 88.7093 406.435 89.136C405.902 89.5627 405.24 89.8827 404.451 90.096C403.683 90.3307 402.84 90.448 401.923 90.448C400.686 90.448 399.619 90.288 398.723 89.968C397.848 89.6267 397.112 89.1893 396.515 88.656C395.939 88.1013 395.502 87.4827 395.203 86.8C394.904 86.096 394.734 85.392 394.691 84.688L397.059 84.112C397.166 85.328 397.635 86.3093 398.467 87.056C399.299 87.7813 400.408 88.144 401.795 88.144C402.968 88.144 403.907 87.92 404.611 87.472C405.336 87.0027 405.699 86.352 405.699 85.52C405.699 84.624 405.347 83.984 404.643 83.6C403.939 83.216 402.798 82.9707 401.219 82.864C399.384 82.736 397.976 82.3093 396.995 81.584C396.014 80.8587 395.523 79.8027 395.523 78.416V78.224C395.523 77.4773 395.683 76.8267 396.003 76.272C396.323 75.696 396.75 75.216 397.283 74.832C397.838 74.448 398.456 74.16 399.139 73.968C399.822 73.776 400.536 73.68 401.283 73.68C402.328 73.68 403.246 73.8293 404.035 74.128C404.824 74.4053 405.486 74.7787 406.019 75.248C406.552 75.696 406.958 76.2187 407.235 76.816C407.534 77.4133 407.726 78.0107 407.811 78.608L405.443 79.184C405.336 78.16 404.92 77.36 404.195 76.784C403.491 76.208 402.563 75.92 401.411 75.92C400.963 75.92 400.526 75.9733 400.099 76.08C399.694 76.1653 399.331 76.304 399.011 76.496C398.691 76.688 398.435 76.9333 398.243 77.232C398.051 77.5093 397.955 77.84 397.955 78.224ZM416.077 82.832C416.141 84.4107 416.631 85.68 417.549 86.64C418.466 87.6 419.746 88.08 421.389 88.08C422.135 88.08 422.786 87.9947 423.341 87.824C423.895 87.6533 424.365 87.4187 424.749 87.12C425.154 86.8213 425.474 86.48 425.709 86.096C425.965 85.6907 426.167 85.264 426.317 84.816L428.685 85.456C428.237 86.928 427.405 88.1333 426.189 89.072C424.994 89.9893 423.373 90.448 421.325 90.448C420.194 90.448 419.149 90.256 418.189 89.872C417.25 89.4667 416.439 88.9013 415.757 88.176C415.074 87.4507 414.541 86.5867 414.157 85.584C413.773 84.5813 413.581 83.472 413.581 82.256V81.488C413.581 80.3787 413.773 79.344 414.157 78.384C414.562 77.424 415.117 76.6027 415.821 75.92C416.525 75.216 417.346 74.672 418.285 74.288C419.245 73.8827 420.279 73.68 421.389 73.68C422.69 73.68 423.81 73.9253 424.749 74.416C425.709 74.8853 426.487 75.472 427.085 76.176C427.703 76.88 428.151 77.648 428.429 78.48C428.727 79.312 428.877 80.08 428.877 80.784V82.832H416.077ZM421.389 76.048C420.685 76.048 420.023 76.1653 419.405 76.4C418.807 76.6133 418.274 76.9227 417.805 77.328C417.357 77.7333 416.983 78.2133 416.685 78.768C416.407 79.3013 416.226 79.888 416.141 80.528H426.381C426.338 79.8453 426.167 79.2267 425.869 78.672C425.591 78.1173 425.218 77.648 424.749 77.264C424.301 76.88 423.778 76.5813 423.181 76.368C422.605 76.1547 422.007 76.048 421.389 76.048ZM432.951 74.128H438.711V76.24H439.095C439.5 75.3653 440.076 74.7253 440.823 74.32C441.569 73.8933 442.423 73.68 443.383 73.68C444.983 73.68 446.273 74.2027 447.255 75.248C448.236 76.2933 448.759 77.8187 448.823 79.824L446.199 80.208C446.199 78.736 445.847 77.68 445.143 77.04C444.439 76.3787 443.575 76.048 442.551 76.048C441.889 76.048 441.313 76.176 440.823 76.432C440.353 76.688 439.959 77.04 439.639 77.488C439.319 77.936 439.084 78.4587 438.935 79.056C438.785 79.6533 438.711 80.2933 438.711 80.976V87.696H442.743V90H432.567V87.696H436.215V76.432H432.951V74.128ZM462.88 90H457.952L452.416 74.128H455.36L460.224 88.848H460.608L465.472 74.128H468.416L462.88 90ZM474.858 82.832C474.922 84.4107 475.413 85.68 476.33 86.64C477.247 87.6 478.527 88.08 480.17 88.08C480.917 88.08 481.567 87.9947 482.122 87.824C482.677 87.6533 483.146 87.4187 483.53 87.12C483.935 86.8213 484.255 86.48 484.49 86.096C484.746 85.6907 484.949 85.264 485.098 84.816L487.466 85.456C487.018 86.928 486.186 88.1333 484.97 89.072C483.775 89.9893 482.154 90.448 480.106 90.448C478.975 90.448 477.93 90.256 476.97 89.872C476.031 89.4667 475.221 88.9013 474.538 88.176C473.855 87.4507 473.322 86.5867 472.938 85.584C472.554 84.5813 472.362 83.472 472.362 82.256V81.488C472.362 80.3787 472.554 79.344 472.938 78.384C473.343 77.424 473.898 76.6027 474.602 75.92C475.306 75.216 476.127 74.672 477.066 74.288C478.026 73.8827 479.061 73.68 480.17 73.68C481.471 73.68 482.591 73.9253 483.53 74.416C484.49 74.8853 485.269 75.472 485.866 76.176C486.485 76.88 486.933 77.648 487.21 78.48C487.509 79.312 487.658 80.08 487.658 80.784V82.832H474.858ZM480.17 76.048C479.466 76.048 478.805 76.1653 478.186 76.4C477.589 76.6133 477.055 76.9227 476.586 77.328C476.138 77.7333 475.765 78.2133 475.466 78.768C475.189 79.3013 475.007 79.888 474.922 80.528H485.162C485.119 79.8453 484.949 79.2267 484.65 78.672C484.373 78.1173 483.999 77.648 483.53 77.264C483.082 76.88 482.559 76.5813 481.962 76.368C481.386 76.1547 480.789 76.048 480.17 76.048ZM504.916 87.568H504.532C504.276 88.0587 503.945 88.4853 503.54 88.848C503.156 89.2107 502.729 89.5093 502.26 89.744C501.812 89.9787 501.332 90.1493 500.82 90.256C500.308 90.384 499.817 90.448 499.348 90.448C498.281 90.448 497.289 90.2667 496.372 89.904C495.454 89.5413 494.644 89.0187 493.94 88.336C493.257 87.6533 492.713 86.8107 492.308 85.808C491.924 84.784 491.732 83.6213 491.732 82.32V81.808C491.732 80.528 491.934 79.3867 492.34 78.384C492.745 77.36 493.289 76.5067 493.972 75.824C494.654 75.12 495.454 74.5867 496.372 74.224C497.289 73.8613 498.26 73.68 499.284 73.68C500.372 73.68 501.385 73.9253 502.324 74.416C503.284 74.8853 504.02 75.6213 504.532 76.624H504.916V67.6H507.412V90H504.916V87.568ZM499.604 88.08C500.35 88.08 501.044 87.9413 501.684 87.664C502.324 87.3867 502.878 86.992 503.348 86.48C503.838 85.968 504.222 85.36 504.5 84.656C504.777 83.9307 504.916 83.1307 504.916 82.256V81.872C504.916 81.0187 504.777 80.24 504.5 79.536C504.222 78.8107 503.838 78.192 503.348 77.68C502.878 77.168 502.313 76.7733 501.652 76.496C501.012 76.1973 500.329 76.048 499.604 76.048C498.857 76.048 498.153 76.1867 497.492 76.464C496.852 76.7413 496.286 77.136 495.796 77.648C495.326 78.16 494.953 78.768 494.676 79.472C494.42 80.176 494.292 80.9547 494.292 81.808V82.32C494.292 83.216 494.42 84.016 494.676 84.72C494.953 85.424 495.326 86.032 495.796 86.544C496.286 87.0347 496.852 87.4187 497.492 87.696C498.132 87.952 498.836 88.08 499.604 88.08Z" fill="black"/>
<path d="M209.161 26.1524C208.522 28.46 205.743 30.0625 202.228 30.0625C197.66 30.0625 194.689 27.0498 194.689 22.4347V20.5117H217.404V15.6402C217.404 6.15352 211.429 0 202.101 0C192.516 0 186.127 6.12147 186.127 15.3838V21.0566C186.127 31.0881 192.005 36.857 202.26 36.857C210.439 36.857 216.669 32.4021 217.404 26.1524H209.161ZM201.941 6.79451C206.35 6.79451 208.969 9.83922 208.969 14.903H194.689C194.689 9.83922 197.404 6.79451 201.941 6.79451Z" fill="black"/>
<path d="M241.971 36.6968C245.837 36.6968 249 33.4277 249 29.4856C249 25.5115 245.837 22.2424 241.971 22.2424C238.106 22.2424 234.943 25.5115 234.943 29.4856C234.943 33.4277 238.106 36.6968 241.971 36.6968Z" fill="black"/>
<path d="M121.108 36.605L177.958 36.7233V9.86837H164.582V23.2959H134.484V9.86837H121.108V36.605Z" fill="url(#paint0_linear_1441_887)"/>
<path d="M2.76675 11.2071C2.76675 16.6555 6.12127 20.1169 12.7345 21.5591L18.0059 22.6808C21.7118 23.4821 23.0536 24.4436 23.0536 26.4306C23.0536 28.7382 20.7534 30.2445 17.1752 30.2445C13.5332 30.2445 11.169 28.8985 10.6259 26.4627H2C2.47922 33.097 8.03814 36.9749 17.0474 36.9749C26.2164 36.9749 32.0309 32.456 32.0309 25.3089C32.0309 19.9246 28.8681 16.8799 21.7437 15.4056L16.2807 14.2839C12.8623 13.5788 11.3927 12.425 11.3927 10.502C11.3927 8.25853 13.5971 6.7522 16.9196 6.7522C20.1783 6.7522 22.4785 8.19443 22.8939 10.5341H31.1364C30.7211 3.89979 25.5136 0.0538433 16.9835 0.0538433C8.26177 0.0538433 2.76675 4.34849 2.76675 11.2071Z" fill="black"/>
<path d="M61.391 0.342289C56.2474 0.342289 52.7651 2.71396 51.5191 6.97655H50.8482V0.887132H41.8709V48H50.976V30.2445H51.6149C52.797 34.4751 56.3113 36.8467 61.391 36.8467C69.4738 36.8467 74.234 31.2701 74.234 21.6232V15.5338C74.234 5.91891 69.4738 0.342289 61.391 0.342289ZM58.0365 7.97009C62.5411 7.97009 65.3206 10.9507 65.3206 15.7902V21.6553C65.3206 26.4947 62.5411 29.4753 58.0365 29.4753C53.4999 29.4753 50.7524 26.5268 50.7524 21.6553V15.7902C50.7524 10.9186 53.4999 7.97009 58.0365 7.97009Z" fill="black"/>
<path d="M93.1471 36.8147C97.7476 36.8147 101.454 34.8597 103.179 31.5265H103.945V36.2378H112.252V12.2647C112.252 4.54078 107.172 0.214091 98.131 0.214091C89.7606 0.214091 83.9781 4.34849 83.3391 10.7584H91.8372C92.572 8.54698 94.8403 7.2009 97.8754 7.2009C101.485 7.2009 103.594 8.99567 103.594 12.0724V14.8928L95.3515 15.4056C86.6617 16.0145 82.0293 19.7643 82.0293 26.1422C82.0293 32.5201 86.502 36.8147 93.1471 36.8147ZM96.1502 29.7958C92.7637 29.7958 90.6552 28.1293 90.6552 25.5012C90.6552 22.777 92.7318 21.2066 96.8211 20.9502L103.594 20.5335V23.0975C103.594 27.0396 100.495 29.7958 96.1502 29.7958Z" fill="black"/>
<defs>
<linearGradient id="paint0_linear_1441_887" x1="249" y1="48" x2="123.432" y2="-101.793" gradientUnits="userSpaceOnUse">
<stop stop-color="#0209B5"/>
<stop offset="1" stop-color="#00F0FF"/>
</linearGradient>
</defs>
</svg>
