<svg width="504" height="101" viewBox="0 0 504 101" fill="none" xmlns="http://www.w3.org/2000/svg">
<path d="M50.408 87.504V90H35.24V86.16C35.24 85.136 35.4107 84.2507 35.752 83.504C36.0933 82.736 36.5733 82.0853 37.192 81.552C37.832 80.9973 38.6 80.5387 39.496 80.176C40.392 79.8133 41.4053 79.504 42.536 79.248C44.4347 78.8213 45.8 78.2133 46.632 77.424C47.4853 76.6347 47.912 75.664 47.912 74.512V74.32C47.912 73.744 47.816 73.1787 47.624 72.624C47.432 72.0693 47.1333 71.568 46.728 71.12C46.3227 70.672 45.8 70.32 45.16 70.064C44.5413 69.7867 43.7947 69.648 42.92 69.648C41.2773 69.648 39.9973 70.1493 39.08 71.152C38.184 72.1547 37.736 73.488 37.736 75.152V76.56H35.048V74.96C35.048 73.936 35.2187 72.9547 35.56 72.016C35.9013 71.0773 36.4027 70.2453 37.064 69.52C37.7253 68.7947 38.5467 68.2187 39.528 67.792C40.5093 67.3653 41.64 67.152 42.92 67.152C44.2213 67.152 45.352 67.3547 46.312 67.76C47.272 68.144 48.072 68.6667 48.712 69.328C49.352 69.968 49.8213 70.704 50.12 71.536C50.44 72.3467 50.6 73.1787 50.6 74.032V74.608C50.6 76.3147 50.0667 77.776 49 78.992C47.9333 80.1867 46.2267 81.04 43.88 81.552C41.832 82 40.328 82.5973 39.368 83.344C38.408 84.0693 37.928 85.136 37.928 86.544V87.504H50.408ZM54.5138 76.304C54.5138 73.4027 55.2071 71.152 56.5938 69.552C57.9804 67.952 59.9111 67.152 62.3858 67.152C64.8604 67.152 66.7911 67.952 68.1778 69.552C69.5644 71.152 70.2578 73.4027 70.2578 76.304V81.296C70.2578 84.2827 69.5644 86.5547 68.1778 88.112C66.7911 89.6693 64.8604 90.448 62.3858 90.448C59.9111 90.448 57.9804 89.6693 56.5938 88.112C55.2071 86.5547 54.5138 84.2827 54.5138 81.296V76.304ZM62.3858 88.016C64.1138 88.016 65.4044 87.4187 66.2578 86.224C67.1324 85.008 67.5698 83.3013 67.5698 81.104V76.496C67.5698 75.472 67.4631 74.544 67.2498 73.712C67.0364 72.8587 66.7058 72.1333 66.2578 71.536C65.8311 70.9173 65.2871 70.4373 64.6258 70.096C63.9858 69.7547 63.2391 69.584 62.3858 69.584C61.5111 69.584 60.7538 69.7547 60.1138 70.096C59.4738 70.4373 58.9298 70.9173 58.4818 71.536C58.0551 72.1333 57.7351 72.8587 57.5218 73.712C57.3084 74.544 57.2018 75.472 57.2018 76.496V81.104C57.2018 83.3013 57.6284 85.008 58.4818 86.224C59.3564 87.4187 60.6578 88.016 62.3858 88.016ZM60.3378 78.8C60.3378 78.2453 60.5404 77.7653 60.9458 77.36C61.3511 76.9547 61.8311 76.752 62.3858 76.752C62.9404 76.752 63.4204 76.9547 63.8258 77.36C64.2311 77.7653 64.4338 78.2453 64.4338 78.8C64.4338 79.3547 64.2311 79.8347 63.8258 80.24C63.4204 80.6453 62.9404 80.848 62.3858 80.848C61.8311 80.848 61.3511 80.6453 60.9458 80.24C60.5404 79.8347 60.3378 79.3547 60.3378 78.8ZM89.5955 87.504V90H74.4275V86.16C74.4275 85.136 74.5982 84.2507 74.9395 83.504C75.2808 82.736 75.7608 82.0853 76.3795 81.552C77.0195 80.9973 77.7875 80.5387 78.6835 80.176C79.5795 79.8133 80.5928 79.504 81.7235 79.248C83.6222 78.8213 84.9875 78.2133 85.8195 77.424C86.6728 76.6347 87.0995 75.664 87.0995 74.512V74.32C87.0995 73.744 87.0035 73.1787 86.8115 72.624C86.6195 72.0693 86.3208 71.568 85.9155 71.12C85.5102 70.672 84.9875 70.32 84.3475 70.064C83.7288 69.7867 82.9822 69.648 82.1075 69.648C80.4648 69.648 79.1848 70.1493 78.2675 71.152C77.3715 72.1547 76.9235 73.488 76.9235 75.152V76.56H74.2355V74.96C74.2355 73.936 74.4062 72.9547 74.7475 72.016C75.0888 71.0773 75.5902 70.2453 76.2515 69.52C76.9128 68.7947 77.7342 68.2187 78.7155 67.792C79.6968 67.3653 80.8275 67.152 82.1075 67.152C83.4088 67.152 84.5395 67.3547 85.4995 67.76C86.4595 68.144 87.2595 68.6667 87.8995 69.328C88.5395 69.968 89.0088 70.704 89.3075 71.536C89.6275 72.3467 89.7875 73.1787 89.7875 74.032V74.608C89.7875 76.3147 89.2542 77.776 88.1875 78.992C87.1208 80.1867 85.4142 81.04 83.0675 81.552C81.0195 82 79.5155 82.5973 78.5555 83.344C77.5955 84.0693 77.1155 85.136 77.1155 86.544V87.504H89.5955ZM109.189 87.504V90H94.0213V86.16C94.0213 85.136 94.1919 84.2507 94.5333 83.504C94.8746 82.736 95.3546 82.0853 95.9733 81.552C96.6133 80.9973 97.3813 80.5387 98.2773 80.176C99.1733 79.8133 100.187 79.504 101.317 79.248C103.216 78.8213 104.581 78.2133 105.413 77.424C106.267 76.6347 106.693 75.664 106.693 74.512V74.32C106.693 73.744 106.597 73.1787 106.405 72.624C106.213 72.0693 105.915 71.568 105.509 71.12C105.104 70.672 104.581 70.32 103.941 70.064C103.323 69.7867 102.576 69.648 101.701 69.648C100.059 69.648 98.7786 70.1493 97.8613 71.152C96.9653 72.1547 96.5173 73.488 96.5173 75.152V76.56H93.8293V74.96C93.8293 73.936 93.9999 72.9547 94.3413 72.016C94.6826 71.0773 95.1839 70.2453 95.8453 69.52C96.5066 68.7947 97.3279 68.2187 98.3093 67.792C99.2906 67.3653 100.421 67.152 101.701 67.152C103.003 67.152 104.133 67.3547 105.093 67.76C106.053 68.144 106.853 68.6667 107.493 69.328C108.133 69.968 108.603 70.704 108.901 71.536C109.221 72.3467 109.381 73.1787 109.381 74.032V74.608C109.381 76.3147 108.848 77.776 107.781 78.992C106.715 80.1867 105.008 81.04 102.661 81.552C100.613 82 99.1093 82.5973 98.1493 83.344C97.1893 84.0693 96.7093 85.136 96.7093 86.544V87.504H109.189ZM145.561 84.432H135.961L134.329 90H131.449L138.233 67.6H143.289L150.073 90H147.193L145.561 84.432ZM140.569 68.752L136.697 81.936H144.825L140.953 68.752H140.569ZM153.347 87.696H159.107V69.904H153.539V67.6H161.603V87.696H167.363V90H153.347V87.696ZM172.94 87.696H178.7V69.904H173.132V67.6H181.196V87.696H186.956V90H172.94V87.696ZM211.232 74.128H216.992V76.24H217.376C217.781 75.3653 218.357 74.7253 219.104 74.32C219.85 73.8933 220.704 73.68 221.664 73.68C223.264 73.68 224.554 74.2027 225.536 75.248C226.517 76.2933 227.04 77.8187 227.104 79.824L224.48 80.208C224.48 78.736 224.128 77.68 223.424 77.04C222.72 76.3787 221.856 76.048 220.832 76.048C220.17 76.048 219.594 76.176 219.104 76.432C218.634 76.688 218.24 77.04 217.92 77.488C217.6 77.936 217.365 78.4587 217.216 79.056C217.066 79.6533 216.992 80.2933 216.992 80.976V87.696H221.024V90H210.848V87.696H214.496V76.432H211.232V74.128ZM236.65 69.392C236.65 68.7733 236.863 68.2507 237.29 67.824C237.738 67.376 238.271 67.152 238.89 67.152C239.508 67.152 240.031 67.376 240.458 67.824C240.906 68.2507 241.13 68.7733 241.13 69.392C241.13 70.0107 240.906 70.544 240.458 70.992C240.031 71.4187 239.508 71.632 238.89 71.632C238.271 71.632 237.738 71.4187 237.29 70.992C236.863 70.544 236.65 70.0107 236.65 69.392ZM232.106 87.696H237.674V76.432H232.682V74.128H240.17V87.696H245.354V90H232.106V87.696ZM263.379 87.568H262.995C262.483 88.528 261.779 89.2533 260.883 89.744C260.009 90.2133 259.049 90.448 258.003 90.448C256.937 90.448 255.934 90.2667 254.995 89.904C254.057 89.5413 253.225 89.0187 252.499 88.336C251.795 87.6533 251.23 86.8107 250.803 85.808C250.398 84.784 250.195 83.6213 250.195 82.32V81.808C250.195 80.528 250.409 79.3867 250.835 78.384C251.262 77.36 251.827 76.5067 252.531 75.824C253.235 75.12 254.057 74.5867 254.995 74.224C255.934 73.8613 256.915 73.68 257.939 73.68C259.091 73.68 260.094 73.936 260.947 74.448C261.822 74.9387 262.505 75.664 262.995 76.624H263.379V74.128H265.875V93.904C265.875 94.6293 265.641 95.2267 265.171 95.696C264.723 96.1653 264.137 96.4 263.411 96.4H253.075V94.096H262.515C263.091 94.096 263.379 93.776 263.379 93.136V87.568ZM258.067 88.08C258.814 88.08 259.507 87.9413 260.147 87.664C260.787 87.3867 261.342 86.992 261.811 86.48C262.302 85.968 262.686 85.36 262.963 84.656C263.241 83.9307 263.379 83.1307 263.379 82.256V81.872C263.379 81.0187 263.241 80.24 262.963 79.536C262.686 78.8107 262.302 78.192 261.811 77.68C261.342 77.168 260.777 76.7733 260.115 76.496C259.475 76.1973 258.793 76.048 258.067 76.048C257.321 76.048 256.617 76.1867 255.955 76.464C255.315 76.7413 254.75 77.136 254.259 77.648C253.79 78.16 253.417 78.768 253.139 79.472C252.883 80.176 252.755 80.9547 252.755 81.808V82.32C252.755 83.216 252.883 84.016 253.139 84.72C253.417 85.424 253.79 86.032 254.259 86.544C254.75 87.0347 255.315 87.4187 255.955 87.696C256.595 87.952 257.299 88.08 258.067 88.08ZM273.405 90H270.909V67.6H273.405V77.008H273.789C274.28 75.984 274.962 75.1733 275.837 74.576C276.733 73.9787 277.821 73.68 279.101 73.68C280.829 73.68 282.226 74.256 283.293 75.408C284.381 76.5387 284.925 78.2453 284.925 80.528V90H282.429V81.04C282.429 79.376 282.056 78.128 281.309 77.296C280.562 76.464 279.549 76.048 278.269 76.048C276.754 76.048 275.56 76.5707 274.685 77.616C273.832 78.64 273.405 80.016 273.405 81.744V90ZM289.959 74.128H294.951V67.6H297.447V74.128H303.591V76.432H297.447V86.736C297.447 87.376 297.735 87.696 298.311 87.696H302.823V90H297.415C296.689 90 296.092 89.7653 295.623 89.296C295.175 88.8267 294.951 88.2293 294.951 87.504V76.432H289.959V74.128ZM313.393 78.224C313.393 78.992 313.713 79.5787 314.353 79.984C315.014 80.3893 316.209 80.656 317.937 80.784C319.793 80.9333 321.201 81.3813 322.161 82.128C323.142 82.8533 323.633 83.92 323.633 85.328V85.52C323.633 86.288 323.473 86.9813 323.153 87.6C322.854 88.1973 322.427 88.7093 321.873 89.136C321.339 89.5627 320.678 89.8827 319.889 90.096C319.121 90.3307 318.278 90.448 317.361 90.448C316.123 90.448 315.057 90.288 314.161 89.968C313.286 89.6267 312.55 89.1893 311.953 88.656C311.377 88.1013 310.939 87.4827 310.641 86.8C310.342 86.096 310.171 85.392 310.129 84.688L312.497 84.112C312.603 85.328 313.073 86.3093 313.905 87.056C314.737 87.7813 315.846 88.144 317.233 88.144C318.406 88.144 319.345 87.92 320.049 87.472C320.774 87.0027 321.137 86.352 321.137 85.52C321.137 84.624 320.785 83.984 320.081 83.6C319.377 83.216 318.235 82.9707 316.657 82.864C314.822 82.736 313.414 82.3093 312.433 81.584C311.451 80.8587 310.961 79.8027 310.961 78.416V78.224C310.961 77.4773 311.121 76.8267 311.441 76.272C311.761 75.696 312.187 75.216 312.721 74.832C313.275 74.448 313.894 74.16 314.577 73.968C315.259 73.776 315.974 73.68 316.72 73.68C317.766 73.68 318.683 73.8293 319.473 74.128C320.262 74.4053 320.923 74.7787 321.457 75.248C321.99 75.696 322.395 76.2187 322.673 76.816C322.971 77.4133 323.163 78.0107 323.249 78.608L320.881 79.184C320.774 78.16 320.358 77.36 319.633 76.784C318.929 76.208 318.001 75.92 316.849 75.92C316.401 75.92 315.963 75.9733 315.536 76.08C315.131 76.1653 314.769 76.304 314.449 76.496C314.129 76.688 313.873 76.9333 313.681 77.232C313.489 77.5093 313.393 77.84 313.393 78.224ZM348.388 74.128H354.148V76.24H354.532C354.937 75.3653 355.513 74.7253 356.26 74.32C357.007 73.8933 357.86 73.68 358.82 73.68C360.42 73.68 361.711 74.2027 362.692 75.248C363.673 76.2933 364.196 77.8187 364.26 79.824L361.636 80.208C361.636 78.736 361.284 77.68 360.58 77.04C359.876 76.3787 359.012 76.048 357.988 76.048C357.327 76.048 356.751 76.176 356.26 76.432C355.791 76.688 355.396 77.04 355.076 77.488C354.756 77.936 354.521 78.4587 354.372 79.056C354.223 79.6533 354.148 80.2933 354.148 80.976V87.696H358.18V90H348.004V87.696H351.652V76.432H348.388V74.128ZM370.702 82.832C370.766 84.4107 371.256 85.68 372.174 86.64C373.091 87.6 374.371 88.08 376.014 88.08C376.76 88.08 377.411 87.9947 377.966 87.824C378.52 87.6533 378.99 87.4187 379.374 87.12C379.779 86.8213 380.099 86.48 380.334 86.096C380.59 85.6907 380.792 85.264 380.942 84.816L383.31 85.456C382.862 86.928 382.03 88.1333 380.814 89.072C379.619 89.9893 377.998 90.448 375.95 90.448C374.819 90.448 373.774 90.256 372.814 89.872C371.875 89.4667 371.064 88.9013 370.382 88.176C369.699 87.4507 369.166 86.5867 368.782 85.584C368.398 84.5813 368.206 83.472 368.206 82.256V81.488C368.206 80.3787 368.398 79.344 368.782 78.384C369.187 77.424 369.742 76.6027 370.446 75.92C371.15 75.216 371.971 74.672 372.91 74.288C373.87 73.8827 374.904 73.68 376.014 73.68C377.315 73.68 378.435 73.9253 379.374 74.416C380.334 74.8853 381.112 75.472 381.71 76.176C382.328 76.88 382.776 77.648 383.054 78.48C383.352 79.312 383.502 80.08 383.502 80.784V82.832H370.702ZM376.014 76.048C375.31 76.048 374.648 76.1653 374.03 76.4C373.432 76.6133 372.899 76.9227 372.43 77.328C371.982 77.7333 371.608 78.2133 371.31 78.768C371.032 79.3013 370.851 79.888 370.766 80.528H381.006C380.963 79.8453 380.792 79.2267 380.494 78.672C380.216 78.1173 379.843 77.648 379.374 77.264C378.926 76.88 378.403 76.5813 377.806 76.368C377.23 76.1547 376.632 76.048 376.014 76.048ZM391.768 78.224C391.768 78.992 392.088 79.5787 392.728 79.984C393.389 80.3893 394.584 80.656 396.312 80.784C398.168 80.9333 399.576 81.3813 400.536 82.128C401.517 82.8533 402.008 83.92 402.008 85.328V85.52C402.008 86.288 401.848 86.9813 401.528 87.6C401.229 88.1973 400.802 88.7093 400.248 89.136C399.714 89.5627 399.053 89.8827 398.264 90.096C397.496 90.3307 396.653 90.448 395.736 90.448C394.498 90.448 393.432 90.288 392.536 89.968C391.661 89.6267 390.925 89.1893 390.328 88.656C389.752 88.1013 389.314 87.4827 389.016 86.8C388.717 86.096 388.546 85.392 388.504 84.688L390.872 84.112C390.978 85.328 391.448 86.3093 392.28 87.056C393.112 87.7813 394.221 88.144 395.608 88.144C396.781 88.144 397.72 87.92 398.424 87.472C399.149 87.0027 399.512 86.352 399.512 85.52C399.512 84.624 399.16 83.984 398.456 83.6C397.752 83.216 396.61 82.9707 395.032 82.864C393.197 82.736 391.789 82.3093 390.808 81.584C389.826 80.8587 389.336 79.8027 389.336 78.416V78.224C389.336 77.4773 389.496 76.8267 389.816 76.272C390.136 75.696 390.562 75.216 391.096 74.832C391.65 74.448 392.269 74.16 392.952 73.968C393.634 73.776 394.349 73.68 395.095 73.68C396.141 73.68 397.058 73.8293 397.848 74.128C398.637 74.4053 399.298 74.7787 399.832 75.248C400.365 75.696 400.77 76.2187 401.048 76.816C401.346 77.4133 401.538 78.0107 401.624 78.608L399.256 79.184C399.149 78.16 398.733 77.36 398.008 76.784C397.304 76.208 396.376 75.92 395.224 75.92C394.776 75.92 394.338 75.9733 393.911 76.08C393.506 76.1653 393.144 76.304 392.824 76.496C392.504 76.688 392.248 76.9333 392.056 77.232C391.864 77.5093 391.768 77.84 391.768 78.224ZM409.889 82.832C409.953 84.4107 410.444 85.68 411.361 86.64C412.279 87.6 413.559 88.08 415.201 88.08C415.948 88.08 416.599 87.9947 417.153 87.824C417.708 87.6533 418.177 87.4187 418.561 87.12C418.967 86.8213 419.287 86.48 419.521 86.096C419.777 85.6907 419.98 85.264 420.129 84.816L422.497 85.456C422.049 86.928 421.217 88.1333 420.001 89.072C418.807 89.9893 417.185 90.448 415.137 90.448C414.007 90.448 412.961 90.256 412.001 89.872C411.063 89.4667 410.252 88.9013 409.569 88.176C408.887 87.4507 408.353 86.5867 407.969 85.584C407.585 84.5813 407.393 83.472 407.393 82.256V81.488C407.393 80.3787 407.585 79.344 407.969 78.384C408.375 77.424 408.929 76.6027 409.633 75.92C410.337 75.216 411.159 74.672 412.097 74.288C413.057 73.8827 414.092 73.68 415.201 73.68C416.503 73.68 417.623 73.9253 418.561 74.416C419.521 74.8853 420.3 75.472 420.897 76.176C421.516 76.88 421.964 77.648 422.241 78.48C422.54 79.312 422.689 80.08 422.689 80.784V82.832H409.889ZM415.201 76.048C414.497 76.048 413.836 76.1653 413.217 76.4C412.62 76.6133 412.087 76.9227 411.617 77.328C411.169 77.7333 410.796 78.2133 410.497 78.768C410.22 79.3013 410.039 79.888 409.953 80.528H420.193C420.151 79.8453 419.98 79.2267 419.681 78.672C419.404 78.1173 419.031 77.648 418.561 77.264C418.113 76.88 417.591 76.5813 416.993 76.368C416.417 76.1547 415.82 76.048 415.201 76.048ZM426.763 74.128H432.523V76.24H432.907C433.312 75.3653 433.888 74.7253 434.635 74.32C435.382 73.8933 436.235 73.68 437.195 73.68C438.795 73.68 440.086 74.2027 441.067 75.248C442.048 76.2933 442.571 77.8187 442.635 79.824L440.011 80.208C440.011 78.736 439.659 77.68 438.955 77.04C438.251 76.3787 437.387 76.048 436.363 76.048C435.702 76.048 435.126 76.176 434.635 76.432C434.166 76.688 433.771 77.04 433.451 77.488C433.131 77.936 432.896 78.4587 432.747 79.056C432.598 79.6533 432.523 80.2933 432.523 80.976V87.696H436.555V90H426.379V87.696H430.027V76.432H426.763V74.128ZM456.693 90H451.765L446.229 74.128H449.173L454.037 88.848H454.421L459.285 74.128H462.229L456.693 90ZM468.671 82.832C468.735 84.4107 469.225 85.68 470.143 86.64C471.06 87.6 472.34 88.08 473.983 88.08C474.729 88.08 475.38 87.9947 475.935 87.824C476.489 87.6533 476.959 87.4187 477.343 87.12C477.748 86.8213 478.068 86.48 478.303 86.096C478.559 85.6907 478.761 85.264 478.911 84.816L481.279 85.456C480.831 86.928 479.999 88.1333 478.783 89.072C477.588 89.9893 475.967 90.448 473.919 90.448C472.788 90.448 471.743 90.256 470.783 89.872C469.844 89.4667 469.033 88.9013 468.351 88.176C467.668 87.4507 467.135 86.5867 466.751 85.584C466.367 84.5813 466.174 83.472 466.174 82.256V81.488C466.174 80.3787 466.367 79.344 466.751 78.384C467.156 77.424 467.711 76.6027 468.415 75.92C469.119 75.216 469.94 74.672 470.879 74.288C471.839 73.8827 472.873 73.68 473.983 73.68C475.284 73.68 476.404 73.9253 477.343 74.416C478.303 74.8853 479.081 75.472 479.679 76.176C480.297 76.88 480.745 77.648 481.023 78.48C481.321 79.312 481.471 80.08 481.471 80.784V82.832H468.671ZM473.983 76.048C473.279 76.048 472.617 76.1653 471.999 76.4C471.401 76.6133 470.868 76.9227 470.399 77.328C469.951 77.7333 469.577 78.2133 469.279 78.768C469.001 79.3013 468.82 79.888 468.735 80.528H478.975C478.932 79.8453 478.761 79.2267 478.463 78.672C478.185 78.1173 477.812 77.648 477.343 77.264C476.895 76.88 476.372 76.5813 475.775 76.368C475.199 76.1547 474.601 76.048 473.983 76.048ZM498.728 87.568H498.344C498.088 88.0587 497.758 88.4853 497.352 88.848C496.968 89.2107 496.542 89.5093 496.072 89.744C495.624 89.9787 495.144 90.1493 494.632 90.256C494.12 90.384 493.63 90.448 493.16 90.448C492.094 90.448 491.102 90.2667 490.184 89.904C489.267 89.5413 488.456 89.0187 487.752 88.336C487.07 87.6533 486.526 86.8107 486.12 85.808C485.736 84.784 485.544 83.6213 485.544 82.32V81.808C485.544 80.528 485.747 79.3867 486.152 78.384C486.558 77.36 487.102 76.5067 487.784 75.824C488.467 75.12 489.267 74.5867 490.184 74.224C491.102 73.8613 492.072 73.68 493.096 73.68C494.184 73.68 495.198 73.9253 496.136 74.416C497.096 74.8853 497.832 75.6213 498.344 76.624H498.728V67.6H501.224V90H498.728V87.568ZM493.416 88.08C494.163 88.08 494.856 87.9413 495.496 87.664C496.136 87.3867 496.691 86.992 497.16 86.48C497.651 85.968 498.035 85.36 498.312 84.656C498.59 83.9307 498.728 83.1307 498.728 82.256V81.872C498.728 81.0187 498.59 80.24 498.312 79.536C498.035 78.8107 497.651 78.192 497.16 77.68C496.691 77.168 496.126 76.7733 495.464 76.496C494.824 76.1973 494.142 76.048 493.416 76.048C492.67 76.048 491.966 76.1867 491.304 76.464C490.664 76.7413 490.099 77.136 489.608 77.648C489.139 78.16 488.766 78.768 488.488 79.472C488.232 80.176 488.104 80.9547 488.104 81.808V82.32C488.104 83.216 488.232 84.016 488.488 84.72C488.766 85.424 489.139 86.032 489.608 86.544C490.099 87.0347 490.664 87.4187 491.304 87.696C491.944 87.952 492.648 88.08 493.416 88.08Z" fill="black"/>
<path d="M2.9 75.2C2.9 73.5 3.21667 71.9 3.85 70.4C4.51667 68.8667 5.4 67.55 6.5 66.45C7.63333 65.3167 8.95 64.4333 10.45 63.8C11.9833 63.1333 13.6 62.8 15.3 62.8C17 62.8 18.6 63.1333 20.1 63.8C21.6333 64.4333 22.95 65.3167 24.05 66.45C25.1833 67.55 26.0667 68.8667 26.7 70.4C27.3667 71.9 27.7 73.5 27.7 75.2C27.7 76.9 27.3667 78.5167 26.7 80.05C26.0667 81.55 25.1833 82.8667 24.05 84C22.95 85.1 21.6333 85.9833 20.1 86.65C18.6 87.2833 17 87.6 15.3 87.6C13.6 87.6 11.9833 87.2833 10.45 86.65C8.95 85.9833 7.63333 85.1 6.5 84C5.4 82.8667 4.51667 81.55 3.85 80.05C3.21667 78.5167 2.9 76.9 2.9 75.2ZM5.3 75.2C5.3 76.6 5.55 77.9167 6.05 79.15C6.58333 80.35 7.3 81.4 8.2 82.3C9.1 83.2 10.15 83.9167 11.35 84.45C12.5833 84.95 13.9 85.2 15.3 85.2C16.7 85.2 18 84.95 19.2 84.45C20.4333 83.9167 21.5 83.2 22.4 82.3C23.3 81.4 24 80.35 24.5 79.15C25.0333 77.9167 25.3 76.6 25.3 75.2C25.3 73.8 25.0333 72.5 24.5 71.3C24 70.0667 23.3 69 22.4 68.1C21.5 67.2 20.4333 66.5 19.2 66C18 65.4667 16.7 65.2 15.3 65.2C13.9 65.2 12.5833 65.4667 11.35 66C10.15 66.5 9.1 67.2 8.2 68.1C7.3 69 6.58333 70.0667 6.05 71.3C5.55 72.5 5.3 73.8 5.3 75.2ZM15.3 80.3C16.0667 80.3 16.6667 80.0667 17.1 79.6C17.5333 79.1 17.75 78.4833 17.75 77.75V76.85H20.45V77.45C20.45 78.9833 20.0167 80.25 19.15 81.25C18.2833 82.2167 17 82.7 15.3 82.7C13.6333 82.7 12.3333 82.2167 11.4 81.25C10.5 80.25 10.05 78.9833 10.05 77.45V72.95C10.05 71.4167 10.5167 70.1667 11.45 69.2C12.3833 68.2 13.6667 67.7 15.3 67.7C17 67.7 18.2833 68.2 19.15 69.2C20.0167 70.1667 20.45 71.4167 20.45 72.95V73.55H17.75V72.65C17.75 71.9167 17.5333 71.3167 17.1 70.85C16.6667 70.35 16.0667 70.1 15.3 70.1C14.5333 70.1 13.9167 70.35 13.45 70.85C12.9833 71.3167 12.75 71.9167 12.75 72.65V77.75C12.75 78.4833 12.9833 79.1 13.45 79.6C13.9167 80.0667 14.5333 80.3 15.3 80.3Z" fill="black"/>
<path d="M210.161 26.1524C209.522 28.46 206.743 30.0625 203.228 30.0625C198.66 30.0625 195.689 27.0498 195.689 22.4347V20.5117H218.404V15.6402C218.404 6.15352 212.429 0 203.101 0C193.516 0 187.127 6.12147 187.127 15.3838V21.0566C187.127 31.0881 193.005 36.857 203.26 36.857C211.439 36.857 217.669 32.4021 218.404 26.1524H210.161ZM202.941 6.79451C207.35 6.79451 209.969 9.83922 209.969 14.903H195.689C195.689 9.83922 198.404 6.79451 202.941 6.79451Z" fill="black"/>
<path d="M242.971 36.6968C246.837 36.6968 250 33.4277 250 29.4856C250 25.5115 246.837 22.2424 242.971 22.2424C239.106 22.2424 235.943 25.5115 235.943 29.4856C235.943 33.4277 239.106 36.6968 242.971 36.6968Z" fill="black"/>
<path d="M122.108 36.605L178.958 36.7233V9.86837H165.582V23.2959H135.484V9.86837H122.108V36.605Z" fill="url(#paint0_linear_1441_887)"/>
<path d="M3.76675 11.2071C3.76675 16.6555 7.12127 20.1169 13.7345 21.5591L19.0059 22.6808C22.7118 23.4821 24.0536 24.4436 24.0536 26.4306C24.0536 28.7382 21.7534 30.2445 18.1752 30.2445C14.5332 30.2445 12.169 28.8985 11.6259 26.4627H3C3.47922 33.0969 9.03814 36.9749 18.0474 36.9749C27.2164 36.9749 33.0309 32.456 33.0309 25.3089C33.0309 19.9246 29.8681 16.8799 22.7437 15.4056L17.2807 14.2839C13.8623 13.5788 12.3927 12.425 12.3927 10.502C12.3927 8.25853 14.5971 6.7522 17.9196 6.7522C21.1783 6.7522 23.4785 8.19443 23.8939 10.5341H32.1364C31.7211 3.89979 26.5136 0.0538433 17.9835 0.0538433C9.26177 0.0538433 3.76675 4.34849 3.76675 11.2071Z" fill="black"/>
<path d="M62.391 0.342289C57.2474 0.342289 53.7651 2.71396 52.5191 6.97655H51.8482V0.887132H42.8709V48H51.976V30.2445H52.6149C53.797 34.4751 57.3113 36.8467 62.391 36.8467C70.4738 36.8467 75.234 31.2701 75.234 21.6232V15.5338C75.234 5.91891 70.4738 0.342289 62.391 0.342289ZM59.0365 7.97009C63.5411 7.97009 66.3206 10.9507 66.3206 15.7902V21.6553C66.3206 26.4947 63.5411 29.4753 59.0365 29.4753C54.4999 29.4753 51.7524 26.5268 51.7524 21.6553V15.7902C51.7524 10.9186 54.4999 7.97009 59.0365 7.97009Z" fill="black"/>
<path d="M94.1471 36.8147C98.7476 36.8147 102.454 34.8597 104.179 31.5265H104.945V36.2378H113.252V12.2647C113.252 4.54078 108.172 0.214091 99.131 0.214091C90.7606 0.214091 84.9781 4.34849 84.3391 10.7584H92.8372C93.572 8.54698 95.8403 7.2009 98.8754 7.2009C102.485 7.2009 104.594 8.99567 104.594 12.0724V14.8928L96.3515 15.4056C87.6617 16.0145 83.0293 19.7643 83.0293 26.1422C83.0293 32.5201 87.502 36.8147 94.1471 36.8147ZM97.1502 29.7958C93.7637 29.7958 91.6552 28.1293 91.6552 25.5012C91.6552 22.777 93.7318 21.2066 97.8211 20.9502L104.594 20.5335V23.0975C104.594 27.0396 101.495 29.7958 97.1502 29.7958Z" fill="black"/>
<defs>
<linearGradient id="paint0_linear_1441_887" x1="250" y1="48" x2="124.432" y2="-101.793" gradientUnits="userSpaceOnUse">
<stop stop-color="#0209B5"/>
<stop offset="1" stop-color="#00F0FF"/>
</linearGradient>
</defs>
</svg>
