<svg width="574" height="104" viewBox="0 0 574 104" fill="none" xmlns="http://www.w3.org/2000/svg">
<path d="M2.088 70.984C2.088 69.76 2.316 68.608 2.772 67.528C3.252 66.424 3.888 65.476 4.68 64.684C5.496 63.868 6.444 63.232 7.524 62.776C8.628 62.296 9.792 62.056 11.016 62.056C12.24 62.056 13.392 62.296 14.472 62.776C15.576 63.232 16.524 63.868 17.316 64.684C18.132 65.476 18.768 66.424 19.224 67.528C19.704 68.608 19.944 69.76 19.944 70.984C19.944 72.208 19.704 73.372 19.224 74.476C18.768 75.556 18.132 76.504 17.316 77.32C16.524 78.112 15.576 78.748 14.472 79.228C13.392 79.684 12.24 79.912 11.016 79.912C9.792 79.912 8.628 79.684 7.524 79.228C6.444 78.748 5.496 78.112 4.68 77.32C3.888 76.504 3.252 75.556 2.772 74.476C2.316 73.372 2.088 72.208 2.088 70.984ZM3.816 70.984C3.816 71.992 3.996 72.94 4.356 73.828C4.74 74.692 5.256 75.448 5.904 76.096C6.552 76.744 7.308 77.26 8.172 77.644C9.06 78.004 10.008 78.184 11.016 78.184C12.024 78.184 12.96 78.004 13.824 77.644C14.712 77.26 15.48 76.744 16.128 76.096C16.776 75.448 17.28 74.692 17.64 73.828C18.024 72.94 18.216 71.992 18.216 70.984C18.216 69.976 18.024 69.04 17.64 68.176C17.28 67.288 16.776 66.52 16.128 65.872C15.48 65.224 14.712 64.72 13.824 64.36C12.96 63.976 12.024 63.784 11.016 63.784C10.008 63.784 9.06 63.976 8.172 64.36C7.308 64.72 6.552 65.224 5.904 65.872C5.256 66.52 4.74 67.288 4.356 68.176C3.996 69.04 3.816 69.976 3.816 70.984ZM11.016 74.656C11.568 74.656 12 74.488 12.312 74.152C12.624 73.792 12.78 73.348 12.78 72.82V72.172H14.724V72.604C14.724 73.708 14.412 74.62 13.788 75.34C13.164 76.036 12.24 76.384 11.016 76.384C9.816 76.384 8.88 76.036 8.208 75.34C7.56 74.62 7.236 73.708 7.236 72.604V69.364C7.236 68.26 7.572 67.36 8.244 66.664C8.916 65.944 9.84 65.584 11.016 65.584C12.24 65.584 13.164 65.944 13.788 66.664C14.412 67.36 14.724 68.26 14.724 69.364V69.796H12.78V69.148C12.78 68.62 12.624 68.188 12.312 67.852C12 67.492 11.568 67.312 11.016 67.312C10.464 67.312 10.02 67.492 9.684 67.852C9.348 68.188 9.18 68.62 9.18 69.148V72.82C9.18 73.348 9.348 73.792 9.684 74.152C10.02 74.488 10.464 74.656 11.016 74.656ZM63.6699 88.192V91H46.6059V86.68C46.6059 85.528 46.7979 84.532 47.1819 83.692C47.5659 82.828 48.1059 82.096 48.8019 81.496C49.5219 80.872 50.3859 80.356 51.3939 79.948C52.4019 79.54 53.5419 79.192 54.8139 78.904C56.9499 78.424 58.4859 77.74 59.4219 76.852C60.3819 75.964 60.8619 74.872 60.8619 73.576V73.36C60.8619 72.712 60.7539 72.076 60.5379 71.452C60.3219 70.828 59.9859 70.264 59.5299 69.76C59.0739 69.256 58.4859 68.86 57.7659 68.572C57.0699 68.26 56.2299 68.104 55.2459 68.104C53.3979 68.104 51.9579 68.668 50.9259 69.796C49.9179 70.924 49.4139 72.424 49.4139 74.296V75.88H46.3899V74.08C46.3899 72.928 46.5819 71.824 46.9659 70.768C47.3499 69.712 47.9139 68.776 48.6579 67.96C49.4019 67.144 50.3259 66.496 51.4299 66.016C52.5339 65.536 53.8059 65.296 55.2459 65.296C56.7099 65.296 57.9819 65.524 59.0619 65.98C60.1419 66.412 61.0419 67 61.7619 67.744C62.4819 68.464 63.0099 69.292 63.3459 70.228C63.7059 71.14 63.8859 72.076 63.8859 73.036V73.684C63.8859 75.604 63.2859 77.248 62.0859 78.616C60.8859 79.96 58.9659 80.92 56.3259 81.496C54.0219 82 52.3299 82.672 51.2499 83.512C50.1699 84.328 49.6299 85.528 49.6299 87.112V88.192H63.6699ZM68.2889 75.592C68.2889 72.328 69.0689 69.796 70.6289 67.996C72.1889 66.196 74.3609 65.296 77.1449 65.296C79.9289 65.296 82.1009 66.196 83.6609 67.996C85.2209 69.796 86.0009 72.328 86.0009 75.592V81.208C86.0009 84.568 85.2209 87.124 83.6609 88.876C82.1009 90.628 79.9289 91.504 77.1449 91.504C74.3609 91.504 72.1889 90.628 70.6289 88.876C69.0689 87.124 68.2889 84.568 68.2889 81.208V75.592ZM77.1449 88.768C79.0889 88.768 80.5409 88.096 81.5009 86.752C82.4849 85.384 82.9769 83.464 82.9769 80.992V75.808C82.9769 74.656 82.8569 73.612 82.6169 72.676C82.3769 71.716 82.0049 70.9 81.5009 70.228C81.0209 69.532 80.4089 68.992 79.6649 68.608C78.9449 68.224 78.1049 68.032 77.1449 68.032C76.1609 68.032 75.3089 68.224 74.5889 68.608C73.8689 68.992 73.2569 69.532 72.7529 70.228C72.2729 70.9 71.9129 71.716 71.6729 72.676C71.4329 73.612 71.3129 74.656 71.3129 75.808V80.992C71.3129 83.464 71.7929 85.384 72.7529 86.752C73.7369 88.096 75.2009 88.768 77.1449 88.768ZM74.8409 78.4C74.8409 77.776 75.0689 77.236 75.5249 76.78C75.9809 76.324 76.5209 76.096 77.1449 76.096C77.7689 76.096 78.3089 76.324 78.7649 76.78C79.2209 77.236 79.4489 77.776 79.4489 78.4C79.4489 79.024 79.2209 79.564 78.7649 80.02C78.3089 80.476 77.7689 80.704 77.1449 80.704C76.5209 80.704 75.9809 80.476 75.5249 80.02C75.0689 79.564 74.8409 79.024 74.8409 78.4ZM107.756 88.192V91H90.6919V86.68C90.6919 85.528 90.8839 84.532 91.2679 83.692C91.6519 82.828 92.1919 82.096 92.8879 81.496C93.6079 80.872 94.4719 80.356 95.4799 79.948C96.4879 79.54 97.6279 79.192 98.8999 78.904C101.036 78.424 102.572 77.74 103.508 76.852C104.468 75.964 104.948 74.872 104.948 73.576V73.36C104.948 72.712 104.84 72.076 104.624 71.452C104.408 70.828 104.072 70.264 103.616 69.76C103.16 69.256 102.572 68.86 101.852 68.572C101.156 68.26 100.316 68.104 99.3319 68.104C97.4839 68.104 96.0439 68.668 95.0119 69.796C94.0039 70.924 93.4999 72.424 93.4999 74.296V75.88H90.4759V74.08C90.4759 72.928 90.6679 71.824 91.0519 70.768C91.4359 69.712 91.9999 68.776 92.7439 67.96C93.4879 67.144 94.4119 66.496 95.5159 66.016C96.6199 65.536 97.8919 65.296 99.3319 65.296C100.796 65.296 102.068 65.524 103.148 65.98C104.228 66.412 105.128 67 105.848 67.744C106.568 68.464 107.096 69.292 107.432 70.228C107.792 71.14 107.972 72.076 107.972 73.036V73.684C107.972 75.604 107.372 77.248 106.172 78.616C104.972 79.96 103.052 80.92 100.412 81.496C98.1079 82 96.4159 82.672 95.3359 83.512C94.2559 84.328 93.7159 85.528 93.7159 87.112V88.192H107.756ZM129.799 88.192V91H112.735V86.68C112.735 85.528 112.927 84.532 113.311 83.692C113.695 82.828 114.235 82.096 114.931 81.496C115.651 80.872 116.515 80.356 117.523 79.948C118.531 79.54 119.671 79.192 120.943 78.904C123.079 78.424 124.615 77.74 125.551 76.852C126.511 75.964 126.991 74.872 126.991 73.576V73.36C126.991 72.712 126.883 72.076 126.667 71.452C126.451 70.828 126.115 70.264 125.659 69.76C125.203 69.256 124.615 68.86 123.895 68.572C123.199 68.26 122.359 68.104 121.375 68.104C119.527 68.104 118.087 68.668 117.055 69.796C116.047 70.924 115.543 72.424 115.543 74.296V75.88H112.519V74.08C112.519 72.928 112.711 71.824 113.095 70.768C113.479 69.712 114.043 68.776 114.787 67.96C115.531 67.144 116.455 66.496 117.559 66.016C118.663 65.536 119.935 65.296 121.375 65.296C122.839 65.296 124.111 65.524 125.191 65.98C126.271 66.412 127.171 67 127.891 67.744C128.611 68.464 129.139 69.292 129.475 70.228C129.835 71.14 130.015 72.076 130.015 73.036V73.684C130.015 75.604 129.415 77.248 128.215 78.616C127.015 79.96 125.095 80.92 122.455 81.496C120.151 82 118.459 82.672 117.379 83.512C116.299 84.328 115.759 85.528 115.759 87.112V88.192H129.799ZM170.717 84.736H159.917L158.081 91H154.841L162.473 65.8H168.161L175.793 91H172.553L170.717 84.736ZM165.101 67.096L160.745 81.928H169.889L165.533 67.096H165.101ZM179.476 88.408H185.956V68.392H179.692V65.8H188.764V88.408H195.244V91H179.476V88.408ZM201.519 88.408H207.999V68.392H201.735V65.8H210.807V88.408H217.287V91H201.519V88.408ZM244.597 73.144H251.077V75.52H251.509C251.965 74.536 252.613 73.816 253.453 73.36C254.293 72.88 255.253 72.64 256.333 72.64C258.133 72.64 259.585 73.228 260.689 74.404C261.793 75.58 262.381 77.296 262.453 79.552L259.501 79.984C259.501 78.328 259.105 77.14 258.313 76.42C257.521 75.676 256.549 75.304 255.397 75.304C254.653 75.304 254.005 75.448 253.453 75.736C252.925 76.024 252.481 76.42 252.121 76.924C251.761 77.428 251.497 78.016 251.329 78.688C251.161 79.36 251.077 80.08 251.077 80.848V88.408H255.613V91H244.165V88.408H248.269V75.736H244.597V73.144ZM273.192 67.816C273.192 67.12 273.432 66.532 273.912 66.052C274.416 65.548 275.016 65.296 275.712 65.296C276.408 65.296 276.996 65.548 277.476 66.052C277.98 66.532 278.232 67.12 278.232 67.816C278.232 68.512 277.98 69.112 277.476 69.616C276.996 70.096 276.408 70.336 275.712 70.336C275.016 70.336 274.416 70.096 273.912 69.616C273.432 69.112 273.192 68.512 273.192 67.816ZM268.08 88.408H274.344V75.736H268.728V73.144H277.152V88.408H282.984V91H268.08V88.408ZM303.263 88.264H302.831C302.255 89.344 301.463 90.16 300.455 90.712C299.471 91.24 298.391 91.504 297.215 91.504C296.015 91.504 294.887 91.3 293.831 90.892C292.775 90.484 291.839 89.896 291.023 89.128C290.231 88.36 289.595 87.412 289.115 86.284C288.659 85.132 288.431 83.824 288.431 82.36V81.784C288.431 80.344 288.671 79.06 289.151 77.932C289.631 76.78 290.267 75.82 291.059 75.052C291.851 74.26 292.775 73.66 293.831 73.252C294.887 72.844 295.991 72.64 297.143 72.64C298.439 72.64 299.567 72.928 300.527 73.504C301.511 74.056 302.279 74.872 302.831 75.952H303.263V73.144H306.071V95.392C306.071 96.208 305.807 96.88 305.279 97.408C304.775 97.936 304.115 98.2 303.299 98.2H291.671V95.608H302.291C302.939 95.608 303.263 95.248 303.263 94.528V88.264ZM297.287 88.84C298.127 88.84 298.907 88.684 299.627 88.372C300.347 88.06 300.971 87.616 301.499 87.04C302.051 86.464 302.483 85.78 302.795 84.988C303.107 84.172 303.263 83.272 303.263 82.288V81.856C303.263 80.896 303.107 80.02 302.795 79.228C302.483 78.412 302.051 77.716 301.499 77.14C300.971 76.564 300.335 76.12 299.591 75.808C298.871 75.472 298.103 75.304 297.287 75.304C296.447 75.304 295.655 75.46 294.911 75.772C294.191 76.084 293.555 76.528 293.003 77.104C292.475 77.68 292.055 78.364 291.743 79.156C291.455 79.948 291.311 80.824 291.311 81.784V82.36C291.311 83.368 291.455 84.268 291.743 85.06C292.055 85.852 292.475 86.536 293.003 87.112C293.555 87.664 294.191 88.096 294.911 88.408C295.631 88.696 296.423 88.84 297.287 88.84ZM314.542 91H311.734V65.8H314.542V76.384H314.974C315.526 75.232 316.294 74.32 317.278 73.648C318.286 72.976 319.51 72.64 320.95 72.64C322.894 72.64 324.466 73.288 325.666 74.584C326.89 75.856 327.502 77.776 327.502 80.344V91H324.694V80.92C324.694 79.048 324.274 77.644 323.434 76.708C322.594 75.772 321.454 75.304 320.014 75.304C318.31 75.304 316.966 75.892 315.982 77.068C315.022 78.22 314.542 79.768 314.542 81.712V91ZM333.165 73.144H338.781V65.8H341.589V73.144H348.501V75.736H341.589V87.328C341.589 88.048 341.913 88.408 342.561 88.408H347.637V91H341.553C340.737 91 340.065 90.736 339.537 90.208C339.033 89.68 338.781 89.008 338.781 88.192V75.736H333.165V73.144ZM359.528 77.752C359.528 78.616 359.888 79.276 360.608 79.732C361.352 80.188 362.696 80.488 364.64 80.632C366.728 80.8 368.312 81.304 369.392 82.144C370.496 82.96 371.048 84.16 371.048 85.744V85.96C371.048 86.824 370.868 87.604 370.508 88.3C370.172 88.972 369.692 89.548 369.068 90.028C368.468 90.508 367.724 90.868 366.836 91.108C365.972 91.372 365.024 91.504 363.992 91.504C362.6 91.504 361.4 91.324 360.392 90.964C359.408 90.58 358.58 90.088 357.908 89.488C357.26 88.864 356.768 88.168 356.432 87.4C356.096 86.608 355.904 85.816 355.856 85.024L358.52 84.376C358.64 85.744 359.168 86.848 360.104 87.688C361.04 88.504 362.288 88.912 363.848 88.912C365.168 88.912 366.224 88.66 367.016 88.156C367.832 87.628 368.24 86.896 368.24 85.96C368.24 84.952 367.844 84.232 367.052 83.8C366.26 83.368 364.976 83.092 363.2 82.972C361.136 82.828 359.552 82.348 358.448 81.532C357.344 80.716 356.792 79.528 356.792 77.968V77.752C356.792 76.912 356.972 76.18 357.332 75.556C357.692 74.908 358.172 74.368 358.772 73.936C359.396 73.504 360.092 73.18 360.86 72.964C361.628 72.748 362.432 72.64 363.271 72.64C364.448 72.64 365.48 72.808 366.368 73.144C367.256 73.456 368 73.876 368.6 74.404C369.2 74.908 369.656 75.496 369.968 76.168C370.304 76.84 370.52 77.512 370.616 78.184L367.952 78.832C367.832 77.68 367.364 76.78 366.548 76.132C365.756 75.484 364.712 75.16 363.416 75.16C362.912 75.16 362.42 75.22 361.939 75.34C361.484 75.436 361.076 75.592 360.716 75.808C360.356 76.024 360.068 76.3 359.852 76.636C359.636 76.948 359.528 77.32 359.528 77.752ZM398.897 73.144H405.377V75.52H405.809C406.265 74.536 406.913 73.816 407.753 73.36C408.593 72.88 409.553 72.64 410.633 72.64C412.433 72.64 413.885 73.228 414.989 74.404C416.093 75.58 416.681 77.296 416.753 79.552L413.801 79.984C413.801 78.328 413.405 77.14 412.613 76.42C411.821 75.676 410.849 75.304 409.697 75.304C408.953 75.304 408.305 75.448 407.753 75.736C407.225 76.024 406.781 76.42 406.421 76.924C406.061 77.428 405.797 78.016 405.629 78.688C405.461 79.36 405.377 80.08 405.377 80.848V88.408H409.913V91H398.465V88.408H402.569V75.736H398.897V73.144ZM424 82.936C424.072 84.712 424.624 86.14 425.656 87.22C426.688 88.3 428.128 88.84 429.976 88.84C430.816 88.84 431.548 88.744 432.172 88.552C432.796 88.36 433.324 88.096 433.756 87.76C434.212 87.424 434.572 87.04 434.836 86.608C435.124 86.152 435.352 85.672 435.52 85.168L438.184 85.888C437.68 87.544 436.744 88.9 435.376 89.956C434.032 90.988 432.208 91.504 429.904 91.504C428.632 91.504 427.456 91.288 426.376 90.856C425.32 90.4 424.408 89.764 423.64 88.948C422.872 88.132 422.272 87.16 421.84 86.032C421.408 84.904 421.192 83.656 421.192 82.288V81.424C421.192 80.176 421.408 79.012 421.84 77.932C422.296 76.852 422.92 75.928 423.712 75.16C424.504 74.368 425.428 73.756 426.484 73.324C427.564 72.868 428.728 72.64 429.976 72.64C431.44 72.64 432.7 72.916 433.756 73.468C434.836 73.996 435.712 74.656 436.384 75.448C437.08 76.24 437.584 77.104 437.896 78.04C438.232 78.976 438.4 79.84 438.4 80.632V82.936H424ZM429.976 75.304C429.184 75.304 428.44 75.436 427.744 75.7C427.072 75.94 426.472 76.288 425.944 76.744C425.44 77.2 425.02 77.74 424.684 78.364C424.372 78.964 424.168 79.624 424.072 80.344H435.592C435.544 79.576 435.352 78.88 435.016 78.256C434.704 77.632 434.284 77.104 433.756 76.672C433.252 76.24 432.664 75.904 431.992 75.664C431.344 75.424 430.672 75.304 429.976 75.304ZM447.699 77.752C447.699 78.616 448.059 79.276 448.779 79.732C449.523 80.188 450.867 80.488 452.811 80.632C454.899 80.8 456.483 81.304 457.563 82.144C458.667 82.96 459.219 84.16 459.219 85.744V85.96C459.219 86.824 459.039 87.604 458.679 88.3C458.343 88.972 457.863 89.548 457.239 90.028C456.639 90.508 455.895 90.868 455.007 91.108C454.143 91.372 453.195 91.504 452.163 91.504C450.771 91.504 449.571 91.324 448.563 90.964C447.579 90.58 446.751 90.088 446.079 89.488C445.431 88.864 444.939 88.168 444.603 87.4C444.267 86.608 444.075 85.816 444.027 85.024L446.691 84.376C446.811 85.744 447.339 86.848 448.275 87.688C449.211 88.504 450.459 88.912 452.019 88.912C453.339 88.912 454.395 88.66 455.187 88.156C456.003 87.628 456.411 86.896 456.411 85.96C456.411 84.952 456.015 84.232 455.223 83.8C454.431 83.368 453.147 83.092 451.371 82.972C449.307 82.828 447.723 82.348 446.619 81.532C445.515 80.716 444.963 79.528 444.963 77.968V77.752C444.963 76.912 445.143 76.18 445.503 75.556C445.863 74.908 446.343 74.368 446.943 73.936C447.567 73.504 448.263 73.18 449.031 72.964C449.799 72.748 450.603 72.64 451.443 72.64C452.619 72.64 453.651 72.808 454.539 73.144C455.427 73.456 456.171 73.876 456.771 74.404C457.371 74.908 457.827 75.496 458.139 76.168C458.475 76.84 458.691 77.512 458.787 78.184L456.123 78.832C456.003 77.68 455.535 76.78 454.719 76.132C453.927 75.484 452.883 75.16 451.587 75.16C451.083 75.16 450.591 75.22 450.111 75.34C449.655 75.436 449.247 75.592 448.887 75.808C448.527 76.024 448.239 76.3 448.023 76.636C447.807 76.948 447.699 77.32 447.699 77.752ZM468.086 82.936C468.158 84.712 468.71 86.14 469.742 87.22C470.774 88.3 472.214 88.84 474.062 88.84C474.902 88.84 475.634 88.744 476.258 88.552C476.882 88.36 477.41 88.096 477.842 87.76C478.298 87.424 478.658 87.04 478.922 86.608C479.21 86.152 479.438 85.672 479.606 85.168L482.27 85.888C481.766 87.544 480.83 88.9 479.462 89.956C478.118 90.988 476.294 91.504 473.99 91.504C472.718 91.504 471.542 91.288 470.462 90.856C469.406 90.4 468.494 89.764 467.726 88.948C466.958 88.132 466.358 87.16 465.926 86.032C465.494 84.904 465.278 83.656 465.278 82.288V81.424C465.278 80.176 465.494 79.012 465.926 77.932C466.382 76.852 467.006 75.928 467.798 75.16C468.59 74.368 469.514 73.756 470.57 73.324C471.65 72.868 472.814 72.64 474.062 72.64C475.526 72.64 476.786 72.916 477.842 73.468C478.922 73.996 479.798 74.656 480.47 75.448C481.166 76.24 481.67 77.104 481.982 78.04C482.318 78.976 482.486 79.84 482.486 80.632V82.936H468.086ZM474.062 75.304C473.27 75.304 472.526 75.436 471.83 75.7C471.158 75.94 470.558 76.288 470.03 76.744C469.526 77.2 469.106 77.74 468.77 78.364C468.458 78.964 468.254 79.624 468.158 80.344H479.678C479.63 79.576 479.438 78.88 479.102 78.256C478.79 77.632 478.37 77.104 477.842 76.672C477.338 76.24 476.75 75.904 476.078 75.664C475.43 75.424 474.758 75.304 474.062 75.304ZM487.069 73.144H493.549V75.52H493.981C494.437 74.536 495.085 73.816 495.925 73.36C496.765 72.88 497.725 72.64 498.805 72.64C500.605 72.64 502.057 73.228 503.161 74.404C504.265 75.58 504.853 77.296 504.925 79.552L501.973 79.984C501.973 78.328 501.577 77.14 500.785 76.42C499.993 75.676 499.021 75.304 497.869 75.304C497.125 75.304 496.477 75.448 495.925 75.736C495.397 76.024 494.953 76.42 494.593 76.924C494.233 77.428 493.969 78.016 493.801 78.688C493.633 79.36 493.549 80.08 493.549 80.848V88.408H498.085V91H486.637V88.408H490.741V75.736H487.069V73.144ZM520.74 91H515.196L508.968 73.144H512.28L517.752 89.704H518.184L523.656 73.144H526.968L520.74 91ZM534.215 82.936C534.287 84.712 534.839 86.14 535.871 87.22C536.903 88.3 538.343 88.84 540.191 88.84C541.031 88.84 541.763 88.744 542.387 88.552C543.011 88.36 543.539 88.096 543.971 87.76C544.427 87.424 544.787 87.04 545.051 86.608C545.339 86.152 545.567 85.672 545.735 85.168L548.399 85.888C547.895 87.544 546.959 88.9 545.591 89.956C544.247 90.988 542.423 91.504 540.119 91.504C538.847 91.504 537.671 91.288 536.591 90.856C535.535 90.4 534.623 89.764 533.855 88.948C533.087 88.132 532.487 87.16 532.055 86.032C531.623 84.904 531.407 83.656 531.407 82.288V81.424C531.407 80.176 531.623 79.012 532.055 77.932C532.511 76.852 533.135 75.928 533.927 75.16C534.719 74.368 535.643 73.756 536.699 73.324C537.779 72.868 538.943 72.64 540.191 72.64C541.655 72.64 542.915 72.916 543.971 73.468C545.051 73.996 545.927 74.656 546.599 75.448C547.295 76.24 547.799 77.104 548.111 78.04C548.447 78.976 548.615 79.84 548.615 80.632V82.936H534.215ZM540.191 75.304C539.399 75.304 538.655 75.436 537.959 75.7C537.287 75.94 536.687 76.288 536.159 76.744C535.655 77.2 535.235 77.74 534.899 78.364C534.587 78.964 534.383 79.624 534.287 80.344H545.807C545.759 79.576 545.567 78.88 545.231 78.256C544.919 77.632 544.499 77.104 543.971 76.672C543.467 76.24 542.879 75.904 542.207 75.664C541.559 75.424 540.887 75.304 540.191 75.304ZM568.03 88.264H567.598C567.31 88.816 566.938 89.296 566.482 89.704C566.05 90.112 565.57 90.448 565.042 90.712C564.538 90.976 563.998 91.168 563.422 91.288C562.846 91.432 562.294 91.504 561.766 91.504C560.566 91.504 559.45 91.3 558.418 90.892C557.386 90.484 556.474 89.896 555.682 89.128C554.914 88.36 554.302 87.412 553.846 86.284C553.414 85.132 553.198 83.824 553.198 82.36V81.784C553.198 80.344 553.426 79.06 553.882 77.932C554.338 76.78 554.95 75.82 555.718 75.052C556.486 74.26 557.386 73.66 558.418 73.252C559.45 72.844 560.542 72.64 561.694 72.64C562.918 72.64 564.058 72.916 565.114 73.468C566.194 73.996 567.022 74.824 567.598 75.952H568.03V65.8H570.838V91H568.03V88.264ZM562.054 88.84C562.894 88.84 563.674 88.684 564.394 88.372C565.114 88.06 565.738 87.616 566.266 87.04C566.818 86.464 567.25 85.78 567.562 84.988C567.874 84.172 568.03 83.272 568.03 82.288V81.856C568.03 80.896 567.874 80.02 567.562 79.228C567.25 78.412 566.818 77.716 566.266 77.14C565.738 76.564 565.102 76.12 564.358 75.808C563.638 75.472 562.87 75.304 562.054 75.304C561.214 75.304 560.422 75.46 559.678 75.772C558.958 76.084 558.322 76.528 557.77 77.104C557.242 77.68 556.822 78.364 556.51 79.156C556.222 79.948 556.078 80.824 556.078 81.784V82.36C556.078 83.368 556.222 84.268 556.51 85.06C556.822 85.852 557.242 86.536 557.77 87.112C558.322 87.664 558.958 88.096 559.678 88.408C560.398 88.696 561.19 88.84 562.054 88.84Z" fill="black"/>
<path d="M209.161 26.1524C208.522 28.46 205.743 30.0625 202.228 30.0625C197.66 30.0625 194.689 27.0498 194.689 22.4347V20.5117H217.404V15.6402C217.404 6.15352 211.429 0 202.101 0C192.516 0 186.127 6.12147 186.127 15.3838V21.0566C186.127 31.0881 192.005 36.857 202.26 36.857C210.439 36.857 216.669 32.4021 217.404 26.1524H209.161ZM201.941 6.79451C206.35 6.79451 208.969 9.83922 208.969 14.903H194.689C194.689 9.83922 197.404 6.79451 201.941 6.79451Z" fill="black"/>
<path d="M241.971 36.6968C245.837 36.6968 249 33.4277 249 29.4856C249 25.5115 245.837 22.2424 241.971 22.2424C238.106 22.2424 234.943 25.5115 234.943 29.4856C234.943 33.4277 238.106 36.6968 241.971 36.6968Z" fill="black"/>
<path d="M121.108 36.605L177.958 36.7233V9.86837H164.582V23.2959H134.484V9.86837H121.108V36.605Z" fill="url(#paint0_linear_1441_887)"/>
<path d="M2.76675 11.2071C2.76675 16.6555 6.12127 20.1169 12.7345 21.5591L18.0059 22.6808C21.7118 23.4821 23.0536 24.4436 23.0536 26.4306C23.0536 28.7382 20.7534 30.2445 17.1752 30.2445C13.5332 30.2445 11.169 28.8985 10.6259 26.4627H2C2.47922 33.0969 8.03814 36.9749 17.0474 36.9749C26.2164 36.9749 32.0309 32.456 32.0309 25.3089C32.0309 19.9246 28.8681 16.8799 21.7437 15.4056L16.2807 14.2839C12.8623 13.5788 11.3927 12.425 11.3927 10.502C11.3927 8.25853 13.5971 6.7522 16.9196 6.7522C20.1783 6.7522 22.4785 8.19443 22.8939 10.5341H31.1364C30.7211 3.89979 25.5136 0.0538433 16.9835 0.0538433C8.26177 0.0538433 2.76675 4.34849 2.76675 11.2071Z" fill="black"/>
<path d="M61.391 0.342289C56.2474 0.342289 52.7651 2.71396 51.5191 6.97655H50.8482V0.887132H41.8709V48H50.976V30.2445H51.6149C52.797 34.4751 56.3113 36.8467 61.391 36.8467C69.4738 36.8467 74.234 31.2701 74.234 21.6232V15.5338C74.234 5.91891 69.4738 0.342289 61.391 0.342289ZM58.0365 7.97009C62.5411 7.97009 65.3206 10.9507 65.3206 15.7902V21.6553C65.3206 26.4947 62.5411 29.4753 58.0365 29.4753C53.4999 29.4753 50.7524 26.5268 50.7524 21.6553V15.7902C50.7524 10.9186 53.4999 7.97009 58.0365 7.97009Z" fill="black"/>
<path d="M93.1471 36.8147C97.7476 36.8147 101.454 34.8597 103.179 31.5265H103.945V36.2378H112.252V12.2647C112.252 4.54078 107.172 0.214091 98.131 0.214091C89.7606 0.214091 83.9781 4.34849 83.3391 10.7584H91.8372C92.572 8.54698 94.8403 7.2009 97.8754 7.2009C101.485 7.2009 103.594 8.99567 103.594 12.0724V14.8928L95.3515 15.4056C86.6617 16.0145 82.0293 19.7643 82.0293 26.1422C82.0293 32.5201 86.502 36.8147 93.1471 36.8147ZM96.1502 29.7958C92.7637 29.7958 90.6552 28.1293 90.6552 25.5012C90.6552 22.777 92.7318 21.2066 96.8211 20.9502L103.594 20.5335V23.0975C103.594 27.0396 100.495 29.7958 96.1502 29.7958Z" fill="black"/>
<defs>
<linearGradient id="paint0_linear_1441_887" x1="249" y1="48" x2="123.432" y2="-101.793" gradientUnits="userSpaceOnUse">
<stop stop-color="#0209B5"/>
<stop offset="1" stop-color="#00F0FF"/>
</linearGradient>
</defs>
</svg>
