<svg width="569" height="98" viewBox="0 0 569 98" fill="none" xmlns="http://www.w3.org/2000/svg">
<path d="M14.756 11.724C14.756 12.86 15.3477 13.6883 16.531 14.209C17.7143 14.6823 19.868 15.0847 22.992 15.416C26.5893 15.7947 29.524 16.8833 31.796 18.682C34.068 20.4333 35.204 22.8947 35.204 26.066V26.492C35.204 29.9947 33.926 32.7873 31.37 34.87C28.814 36.9527 25.2167 37.994 20.578 37.994C17.8327 37.994 15.4897 37.639 13.549 36.929C11.6083 36.219 9.999 35.3433 8.721 34.302C7.443 33.2133 6.449 32.03 5.739 30.752C5.07633 29.4267 4.62667 28.1487 4.39 26.918L12.626 24.22C13.0047 25.7347 13.7857 27.06 14.969 28.196C16.1997 29.332 18.0693 29.9 20.578 29.9C22.8027 29.9 24.3173 29.5687 25.122 28.906C25.974 28.196 26.4 27.4387 26.4 26.634C26.4 26.1607 26.2817 25.7347 26.045 25.356C25.8557 24.93 25.477 24.5513 24.909 24.22C24.341 23.8413 23.56 23.5337 22.566 23.297C21.6193 23.0603 20.4123 22.871 18.945 22.729C14.969 22.3977 11.7977 21.38 9.431 19.676C7.11167 17.9247 5.952 15.3687 5.952 12.008V11.582C5.952 9.83067 6.33067 8.29233 7.088 6.967C7.84533 5.64166 8.83933 4.52933 10.07 3.63C11.3007 2.68333 12.7207 1.97333 14.33 1.5C15.9393 1.02666 17.596 0.789996 19.3 0.789996C21.5247 0.789996 23.4417 1.074 25.051 1.642C26.7077 2.16267 28.104 2.87267 29.24 3.772C30.376 4.624 31.299 5.59433 32.009 6.683C32.719 7.72433 33.2633 8.742 33.642 9.736L25.548 13.002C25.122 11.724 24.3883 10.73 23.347 10.02C22.3057 9.26266 20.9567 8.884 19.3 8.884C17.7853 8.884 16.6493 9.168 15.892 9.736C15.1347 10.2567 14.756 10.9193 14.756 11.724ZM54.1116 51.2H45.1656V1.784H54.1116V6.896H55.3896C56.3363 4.95533 57.709 3.46433 59.5076 2.423C61.3063 1.33433 63.602 0.789996 66.3946 0.789996C68.4773 0.789996 70.4416 1.19233 72.2876 1.997C74.181 2.80167 75.814 3.985 77.1866 5.547C78.6066 7.06167 79.719 8.93133 80.5236 11.156C81.3756 13.3807 81.8016 15.913 81.8016 18.753V20.031C81.8016 22.9183 81.3993 25.4743 80.5946 27.699C79.79 29.9237 78.7013 31.817 77.3286 33.379C75.956 34.8937 74.323 36.0533 72.4296 36.858C70.5836 37.6153 68.572 37.994 66.3946 37.994C64.7853 37.994 63.389 37.8283 62.2056 37.497C61.0223 37.1657 59.981 36.716 59.0816 36.148C58.2296 35.58 57.496 34.941 56.8806 34.231C56.3126 33.4737 55.8156 32.6927 55.3896 31.888H54.1116V51.2ZM63.4836 29.474C66.2763 29.474 68.5246 28.622 70.2286 26.918C71.98 25.1667 72.8556 22.8 72.8556 19.818V18.966C72.8556 15.984 71.98 13.641 70.2286 11.937C68.5246 10.1857 66.2763 9.31 63.4836 9.31C60.691 9.31 58.419 10.2093 56.6676 12.008C54.9636 13.7593 54.1116 16.0787 54.1116 18.966V19.818C54.1116 22.7053 54.9636 25.0483 56.6676 26.847C58.419 28.5983 60.691 29.474 63.4836 29.474ZM113.276 31.888C112.33 34.1127 111.004 35.6983 109.3 36.645C107.596 37.5443 105.608 37.994 103.336 37.994C101.206 37.994 99.1946 37.5917 97.3013 36.787C95.4553 35.9823 93.8223 34.799 92.4023 33.237C90.9823 31.675 89.8463 29.7817 88.9943 27.557C88.1896 25.3323 87.7873 22.8 87.7873 19.96V18.824C87.7873 16.0313 88.1896 13.5227 88.9943 11.298C89.7989 9.07333 90.8876 7.18 92.2603 5.618C93.6329 4.056 95.2186 2.87267 97.0173 2.068C98.8633 1.216 100.828 0.789996 102.91 0.789996C105.419 0.789996 107.431 1.216 108.945 2.068C110.507 2.92 111.738 4.24533 112.637 6.044H113.915V1.784H122.861V26.35C122.861 27.77 123.5 28.48 124.778 28.48H126.127V37H120.021C118.412 37 117.087 36.5267 116.045 35.58C115.051 34.6333 114.554 33.4027 114.554 31.888H113.276ZM105.324 29.474C107.928 29.474 110.01 28.622 111.572 26.918C113.134 25.1667 113.915 22.8 113.915 19.818V18.966C113.915 15.984 113.134 13.641 111.572 11.937C110.01 10.1857 107.928 9.31 105.324 9.31C102.721 9.31 100.638 10.1857 99.0763 11.937C97.5143 13.641 96.7333 15.984 96.7333 18.966V19.818C96.7333 22.8 97.5143 25.1667 99.0763 26.918C100.638 28.622 102.721 29.474 105.324 29.474ZM168.323 24.078C167.518 28.2433 165.601 31.604 162.572 34.16C159.59 36.716 155.59 37.994 150.573 37.994C147.97 37.994 145.532 37.5917 143.26 36.787C141.035 35.9823 139.095 34.8227 137.438 33.308C135.781 31.7933 134.48 29.9237 133.533 27.699C132.586 25.4743 132.113 22.942 132.113 20.102V19.25C132.113 16.41 132.586 13.854 133.533 11.582C134.48 9.31 135.781 7.36933 137.438 5.76C139.142 4.15066 141.106 2.92 143.331 2.068C145.603 1.216 148.017 0.789996 150.573 0.789996C155.496 0.789996 159.472 2.068 162.501 4.624C165.578 7.18 167.518 10.5407 168.323 14.706L159.519 16.978C159.235 14.8953 158.336 13.0967 156.821 11.582C155.306 10.0673 153.176 9.31 150.431 9.31C149.153 9.31 147.946 9.54667 146.81 10.02C145.674 10.4933 144.68 11.1797 143.828 12.079C142.976 12.931 142.29 13.996 141.769 15.274C141.296 16.5047 141.059 17.901 141.059 19.463V19.889C141.059 21.451 141.296 22.8473 141.769 24.078C142.29 25.2613 142.976 26.2553 143.828 27.06C144.68 27.8647 145.674 28.48 146.81 28.906C147.946 29.2847 149.153 29.474 150.431 29.474C153.176 29.474 155.259 28.7877 156.679 27.415C158.146 26.0423 159.093 24.1963 159.519 21.877L168.323 24.078ZM185.314 22.303C185.361 23.3443 185.598 24.3147 186.024 25.214C186.497 26.066 187.112 26.8233 187.87 27.486C188.674 28.1013 189.574 28.5983 190.568 28.977C191.609 29.3083 192.698 29.474 193.834 29.474C196.058 29.474 197.762 29.0953 198.946 28.338C200.129 27.5333 200.981 26.5867 201.502 25.498L209.17 29.758C208.744 30.6573 208.152 31.604 207.395 32.598C206.637 33.5447 205.643 34.4203 204.413 35.225C203.229 36.0297 201.762 36.6923 200.011 37.213C198.307 37.7337 196.295 37.994 193.976 37.994C191.325 37.994 188.911 37.568 186.734 36.716C184.556 35.864 182.663 34.6333 181.054 33.024C179.492 31.4147 178.261 29.4503 177.362 27.131C176.51 24.8117 176.084 22.1847 176.084 19.25V18.824C176.084 16.126 176.533 13.6647 177.433 11.44C178.379 9.21533 179.657 7.322 181.267 5.76C182.876 4.198 184.746 2.991 186.876 2.139C189.053 1.23966 191.372 0.789996 193.834 0.789996C196.863 0.789996 199.466 1.33433 201.644 2.423C203.821 3.46433 205.62 4.81333 207.04 6.47C208.46 8.07933 209.501 9.878 210.164 11.866C210.826 13.8067 211.158 15.7 211.158 17.546V22.303H185.314ZM193.763 8.884C191.491 8.884 189.645 9.47566 188.225 10.659C186.805 11.795 185.882 13.1203 185.456 14.635H202.07C201.786 12.9783 200.886 11.6057 199.372 10.517C197.904 9.42833 196.035 8.884 193.763 8.884ZM243.839 31.249C243.839 32.1957 243.65 33.095 243.271 33.947C242.94 34.7517 242.466 35.4617 241.851 36.077C241.236 36.645 240.502 37.0947 239.65 37.426C238.845 37.8047 237.993 37.994 237.094 37.994C236.147 37.994 235.272 37.8047 234.467 37.426C233.662 37.0947 232.952 36.645 232.337 36.077C231.722 35.4617 231.225 34.7517 230.846 33.947C230.515 33.095 230.349 32.1957 230.349 31.249C230.349 30.3023 230.515 29.4267 230.846 28.622C231.225 27.77 231.722 27.06 232.337 26.492C232.952 25.8767 233.662 25.4033 234.467 25.072C235.272 24.6933 236.147 24.504 237.094 24.504C237.993 24.504 238.845 24.6933 239.65 25.072C240.502 25.4033 241.236 25.8767 241.851 26.492C242.466 27.06 242.94 27.77 243.271 28.622C243.65 29.4267 243.839 30.3023 243.839 31.249ZM0.0880001 69.984C0.0880001 68.76 0.316 67.608 0.772 66.528C1.252 65.424 1.888 64.476 2.68 63.684C3.496 62.868 4.444 62.232 5.524 61.776C6.628 61.296 7.792 61.056 9.016 61.056C10.24 61.056 11.392 61.296 12.472 61.776C13.576 62.232 14.524 62.868 15.316 63.684C16.132 64.476 16.768 65.424 17.224 66.528C17.704 67.608 17.944 68.76 17.944 69.984C17.944 71.208 17.704 72.372 17.224 73.476C16.768 74.556 16.132 75.504 15.316 76.32C14.524 77.112 13.576 77.748 12.472 78.228C11.392 78.684 10.24 78.912 9.016 78.912C7.792 78.912 6.628 78.684 5.524 78.228C4.444 77.748 3.496 77.112 2.68 76.32C1.888 75.504 1.252 74.556 0.772 73.476C0.316 72.372 0.0880001 71.208 0.0880001 69.984ZM1.816 69.984C1.816 70.992 1.996 71.94 2.356 72.828C2.74 73.692 3.256 74.448 3.904 75.096C4.552 75.744 5.308 76.26 6.172 76.644C7.06 77.004 8.008 77.184 9.016 77.184C10.024 77.184 10.96 77.004 11.824 76.644C12.712 76.26 13.48 75.744 14.128 75.096C14.776 74.448 15.28 73.692 15.64 72.828C16.024 71.94 16.216 70.992 16.216 69.984C16.216 68.976 16.024 68.04 15.64 67.176C15.28 66.288 14.776 65.52 14.128 64.872C13.48 64.224 12.712 63.72 11.824 63.36C10.96 62.976 10.024 62.784 9.016 62.784C8.008 62.784 7.06 62.976 6.172 63.36C5.308 63.72 4.552 64.224 3.904 64.872C3.256 65.52 2.74 66.288 2.356 67.176C1.996 68.04 1.816 68.976 1.816 69.984ZM9.016 73.656C9.568 73.656 10 73.488 10.312 73.152C10.624 72.792 10.78 72.348 10.78 71.82V71.172H12.724V71.604C12.724 72.708 12.412 73.62 11.788 74.34C11.164 75.036 10.24 75.384 9.016 75.384C7.816 75.384 6.88 75.036 6.208 74.34C5.56 73.62 5.236 72.708 5.236 71.604V68.364C5.236 67.26 5.572 66.36 6.244 65.664C6.916 64.944 7.84 64.584 9.016 64.584C10.24 64.584 11.164 64.944 11.788 65.664C12.412 66.36 12.724 67.26 12.724 68.364V68.796H10.78V68.148C10.78 67.62 10.624 67.188 10.312 66.852C10 66.492 9.568 66.312 9.016 66.312C8.464 66.312 8.02 66.492 7.684 66.852C7.348 67.188 7.18 67.62 7.18 68.148V71.82C7.18 72.348 7.348 72.792 7.684 73.152C8.02 73.488 8.464 73.656 9.016 73.656ZM61.6699 87.192V90H44.6059V85.68C44.6059 84.528 44.7979 83.532 45.1819 82.692C45.5659 81.828 46.1059 81.096 46.8019 80.496C47.5219 79.872 48.3859 79.356 49.3939 78.948C50.4019 78.54 51.5419 78.192 52.8139 77.904C54.9499 77.424 56.4859 76.74 57.4219 75.852C58.3819 74.964 58.8619 73.872 58.8619 72.576V72.36C58.8619 71.712 58.7539 71.076 58.5379 70.452C58.3219 69.828 57.9859 69.264 57.5299 68.76C57.0739 68.256 56.4859 67.86 55.7659 67.572C55.0699 67.26 54.2299 67.104 53.2459 67.104C51.3979 67.104 49.9579 67.668 48.9259 68.796C47.9179 69.924 47.4139 71.424 47.4139 73.296V74.88H44.3899V73.08C44.3899 71.928 44.5819 70.824 44.9659 69.768C45.3499 68.712 45.9139 67.776 46.6579 66.96C47.4019 66.144 48.3259 65.496 49.4299 65.016C50.5339 64.536 51.8059 64.296 53.2459 64.296C54.7099 64.296 55.9819 64.524 57.0619 64.98C58.1419 65.412 59.0419 66 59.7619 66.744C60.4819 67.464 61.0099 68.292 61.3459 69.228C61.7059 70.14 61.8859 71.076 61.8859 72.036V72.684C61.8859 74.604 61.2859 76.248 60.0859 77.616C58.8859 78.96 56.9659 79.92 54.3259 80.496C52.0219 81 50.3299 81.672 49.2499 82.512C48.1699 83.328 47.6299 84.528 47.6299 86.112V87.192H61.6699ZM66.2889 74.592C66.2889 71.328 67.0689 68.796 68.6289 66.996C70.1889 65.196 72.3609 64.296 75.1449 64.296C77.9289 64.296 80.1009 65.196 81.6609 66.996C83.2209 68.796 84.0009 71.328 84.0009 74.592V80.208C84.0009 83.568 83.2209 86.124 81.6609 87.876C80.1009 89.628 77.9289 90.504 75.1449 90.504C72.3609 90.504 70.1889 89.628 68.6289 87.876C67.0689 86.124 66.2889 83.568 66.2889 80.208V74.592ZM75.1449 87.768C77.0889 87.768 78.5409 87.096 79.5009 85.752C80.4849 84.384 80.9769 82.464 80.9769 79.992V74.808C80.9769 73.656 80.8569 72.612 80.6169 71.676C80.3769 70.716 80.0049 69.9 79.5009 69.228C79.0209 68.532 78.4089 67.992 77.6649 67.608C76.9449 67.224 76.1049 67.032 75.1449 67.032C74.1609 67.032 73.3089 67.224 72.5889 67.608C71.8689 67.992 71.2569 68.532 70.7529 69.228C70.2729 69.9 69.9129 70.716 69.6729 71.676C69.4329 72.612 69.3129 73.656 69.3129 74.808V79.992C69.3129 82.464 69.7929 84.384 70.7529 85.752C71.7369 87.096 73.2009 87.768 75.1449 87.768ZM72.8409 77.4C72.8409 76.776 73.0689 76.236 73.5249 75.78C73.9809 75.324 74.5209 75.096 75.1449 75.096C75.7689 75.096 76.3089 75.324 76.7649 75.78C77.2209 76.236 77.4489 76.776 77.4489 77.4C77.4489 78.024 77.2209 78.564 76.7649 79.02C76.3089 79.476 75.7689 79.704 75.1449 79.704C74.5209 79.704 73.9809 79.476 73.5249 79.02C73.0689 78.564 72.8409 78.024 72.8409 77.4ZM105.756 87.192V90H88.6919V85.68C88.6919 84.528 88.8839 83.532 89.2679 82.692C89.6519 81.828 90.1919 81.096 90.8879 80.496C91.6079 79.872 92.4719 79.356 93.4799 78.948C94.4879 78.54 95.6279 78.192 96.8999 77.904C99.0359 77.424 100.572 76.74 101.508 75.852C102.468 74.964 102.948 73.872 102.948 72.576V72.36C102.948 71.712 102.84 71.076 102.624 70.452C102.408 69.828 102.072 69.264 101.616 68.76C101.16 68.256 100.572 67.86 99.8519 67.572C99.1559 67.26 98.3159 67.104 97.3319 67.104C95.4839 67.104 94.0439 67.668 93.0119 68.796C92.0039 69.924 91.4999 71.424 91.4999 73.296V74.88H88.4759V73.08C88.4759 71.928 88.6679 70.824 89.0519 69.768C89.4359 68.712 89.9999 67.776 90.7439 66.96C91.4879 66.144 92.4119 65.496 93.5159 65.016C94.6199 64.536 95.8919 64.296 97.3319 64.296C98.7959 64.296 100.068 64.524 101.148 64.98C102.228 65.412 103.128 66 103.848 66.744C104.568 67.464 105.096 68.292 105.432 69.228C105.792 70.14 105.972 71.076 105.972 72.036V72.684C105.972 74.604 105.372 76.248 104.172 77.616C102.972 78.96 101.052 79.92 98.4119 80.496C96.1079 81 94.4159 81.672 93.3359 82.512C92.2559 83.328 91.7159 84.528 91.7159 86.112V87.192H105.756ZM127.799 87.192V90H110.735V85.68C110.735 84.528 110.927 83.532 111.311 82.692C111.695 81.828 112.235 81.096 112.931 80.496C113.651 79.872 114.515 79.356 115.523 78.948C116.531 78.54 117.671 78.192 118.943 77.904C121.079 77.424 122.615 76.74 123.551 75.852C124.511 74.964 124.991 73.872 124.991 72.576V72.36C124.991 71.712 124.883 71.076 124.667 70.452C124.451 69.828 124.115 69.264 123.659 68.76C123.203 68.256 122.615 67.86 121.895 67.572C121.199 67.26 120.359 67.104 119.375 67.104C117.527 67.104 116.087 67.668 115.055 68.796C114.047 69.924 113.543 71.424 113.543 73.296V74.88H110.519V73.08C110.519 71.928 110.711 70.824 111.095 69.768C111.479 68.712 112.043 67.776 112.787 66.96C113.531 66.144 114.455 65.496 115.559 65.016C116.663 64.536 117.935 64.296 119.375 64.296C120.839 64.296 122.111 64.524 123.191 64.98C124.271 65.412 125.171 66 125.891 66.744C126.611 67.464 127.139 68.292 127.475 69.228C127.835 70.14 128.015 71.076 128.015 72.036V72.684C128.015 74.604 127.415 76.248 126.215 77.616C125.015 78.96 123.095 79.92 120.455 80.496C118.151 81 116.459 81.672 115.379 82.512C114.299 83.328 113.759 84.528 113.759 86.112V87.192H127.799ZM168.717 83.736H157.917L156.081 90H152.841L160.473 64.8H166.161L173.793 90H170.553L168.717 83.736ZM163.101 66.096L158.745 80.928H167.889L163.533 66.096H163.101ZM177.476 87.408H183.956V67.392H177.692V64.8H186.764V87.408H193.244V90H177.476V87.408ZM199.519 87.408H205.999V67.392H199.735V64.8H208.807V87.408H215.287V90H199.519V87.408ZM242.597 72.144H249.077V74.52H249.509C249.965 73.536 250.613 72.816 251.453 72.36C252.293 71.88 253.253 71.64 254.333 71.64C256.133 71.64 257.585 72.228 258.689 73.404C259.793 74.58 260.381 76.296 260.453 78.552L257.501 78.984C257.501 77.328 257.105 76.14 256.313 75.42C255.521 74.676 254.549 74.304 253.397 74.304C252.653 74.304 252.005 74.448 251.453 74.736C250.925 75.024 250.481 75.42 250.121 75.924C249.761 76.428 249.497 77.016 249.329 77.688C249.161 78.36 249.077 79.08 249.077 79.848V87.408H253.613V90H242.165V87.408H246.269V74.736H242.597V72.144ZM271.192 66.816C271.192 66.12 271.432 65.532 271.912 65.052C272.416 64.548 273.016 64.296 273.712 64.296C274.408 64.296 274.996 64.548 275.476 65.052C275.98 65.532 276.232 66.12 276.232 66.816C276.232 67.512 275.98 68.112 275.476 68.616C274.996 69.096 274.408 69.336 273.712 69.336C273.016 69.336 272.416 69.096 271.912 68.616C271.432 68.112 271.192 67.512 271.192 66.816ZM266.08 87.408H272.344V74.736H266.728V72.144H275.152V87.408H280.984V90H266.08V87.408ZM301.263 87.264H300.831C300.255 88.344 299.463 89.16 298.455 89.712C297.471 90.24 296.391 90.504 295.215 90.504C294.015 90.504 292.887 90.3 291.831 89.892C290.775 89.484 289.839 88.896 289.023 88.128C288.231 87.36 287.595 86.412 287.115 85.284C286.659 84.132 286.431 82.824 286.431 81.36V80.784C286.431 79.344 286.671 78.06 287.151 76.932C287.631 75.78 288.267 74.82 289.059 74.052C289.851 73.26 290.775 72.66 291.831 72.252C292.887 71.844 293.991 71.64 295.143 71.64C296.439 71.64 297.567 71.928 298.527 72.504C299.511 73.056 300.279 73.872 300.831 74.952H301.263V72.144H304.071V94.392C304.071 95.208 303.807 95.88 303.279 96.408C302.775 96.936 302.115 97.2 301.299 97.2H289.671V94.608H300.291C300.939 94.608 301.263 94.248 301.263 93.528V87.264ZM295.287 87.84C296.127 87.84 296.907 87.684 297.627 87.372C298.347 87.06 298.971 86.616 299.499 86.04C300.051 85.464 300.483 84.78 300.795 83.988C301.107 83.172 301.263 82.272 301.263 81.288V80.856C301.263 79.896 301.107 79.02 300.795 78.228C300.483 77.412 300.051 76.716 299.499 76.14C298.971 75.564 298.335 75.12 297.591 74.808C296.871 74.472 296.103 74.304 295.287 74.304C294.447 74.304 293.655 74.46 292.911 74.772C292.191 75.084 291.555 75.528 291.003 76.104C290.475 76.68 290.055 77.364 289.743 78.156C289.455 78.948 289.311 79.824 289.311 80.784V81.36C289.311 82.368 289.455 83.268 289.743 84.06C290.055 84.852 290.475 85.536 291.003 86.112C291.555 86.664 292.191 87.096 292.911 87.408C293.631 87.696 294.423 87.84 295.287 87.84ZM312.542 90H309.734V64.8H312.542V75.384H312.974C313.526 74.232 314.294 73.32 315.278 72.648C316.286 71.976 317.51 71.64 318.95 71.64C320.894 71.64 322.466 72.288 323.666 73.584C324.89 74.856 325.502 76.776 325.502 79.344V90H322.694V79.92C322.694 78.048 322.274 76.644 321.434 75.708C320.594 74.772 319.454 74.304 318.014 74.304C316.31 74.304 314.966 74.892 313.982 76.068C313.022 77.22 312.542 78.768 312.542 80.712V90ZM331.165 72.144H336.781V64.8H339.589V72.144H346.501V74.736H339.589V86.328C339.589 87.048 339.913 87.408 340.561 87.408H345.637V90H339.553C338.737 90 338.065 89.736 337.537 89.208C337.033 88.68 336.781 88.008 336.781 87.192V74.736H331.165V72.144ZM357.528 76.752C357.528 77.616 357.888 78.276 358.608 78.732C359.352 79.188 360.696 79.488 362.64 79.632C364.728 79.8 366.312 80.304 367.392 81.144C368.496 81.96 369.048 83.16 369.048 84.744V84.96C369.048 85.824 368.868 86.604 368.508 87.3C368.172 87.972 367.692 88.548 367.068 89.028C366.468 89.508 365.724 89.868 364.836 90.108C363.972 90.372 363.024 90.504 361.992 90.504C360.6 90.504 359.4 90.324 358.392 89.964C357.408 89.58 356.58 89.088 355.908 88.488C355.26 87.864 354.768 87.168 354.432 86.4C354.096 85.608 353.904 84.816 353.856 84.024L356.52 83.376C356.64 84.744 357.168 85.848 358.104 86.688C359.04 87.504 360.288 87.912 361.848 87.912C363.168 87.912 364.224 87.66 365.016 87.156C365.832 86.628 366.24 85.896 366.24 84.96C366.24 83.952 365.844 83.232 365.052 82.8C364.26 82.368 362.976 82.092 361.2 81.972C359.136 81.828 357.552 81.348 356.448 80.532C355.344 79.716 354.792 78.528 354.792 76.968V76.752C354.792 75.912 354.972 75.18 355.332 74.556C355.692 73.908 356.172 73.368 356.772 72.936C357.396 72.504 358.092 72.18 358.86 71.964C359.628 71.748 360.432 71.64 361.271 71.64C362.448 71.64 363.48 71.808 364.368 72.144C365.256 72.456 366 72.876 366.6 73.404C367.2 73.908 367.656 74.496 367.968 75.168C368.304 75.84 368.52 76.512 368.616 77.184L365.952 77.832C365.832 76.68 365.364 75.78 364.548 75.132C363.756 74.484 362.712 74.16 361.416 74.16C360.912 74.16 360.42 74.22 359.939 74.34C359.484 74.436 359.076 74.592 358.716 74.808C358.356 75.024 358.068 75.3 357.852 75.636C357.636 75.948 357.528 76.32 357.528 76.752ZM396.897 72.144H403.377V74.52H403.809C404.265 73.536 404.913 72.816 405.753 72.36C406.593 71.88 407.553 71.64 408.633 71.64C410.433 71.64 411.885 72.228 412.989 73.404C414.093 74.58 414.681 76.296 414.753 78.552L411.801 78.984C411.801 77.328 411.405 76.14 410.613 75.42C409.821 74.676 408.849 74.304 407.697 74.304C406.953 74.304 406.305 74.448 405.753 74.736C405.225 75.024 404.781 75.42 404.421 75.924C404.061 76.428 403.797 77.016 403.629 77.688C403.461 78.36 403.377 79.08 403.377 79.848V87.408H407.913V90H396.465V87.408H400.569V74.736H396.897V72.144ZM422 81.936C422.072 83.712 422.624 85.14 423.656 86.22C424.688 87.3 426.128 87.84 427.976 87.84C428.816 87.84 429.548 87.744 430.172 87.552C430.796 87.36 431.324 87.096 431.756 86.76C432.212 86.424 432.572 86.04 432.836 85.608C433.124 85.152 433.352 84.672 433.52 84.168L436.184 84.888C435.68 86.544 434.744 87.9 433.376 88.956C432.032 89.988 430.208 90.504 427.904 90.504C426.632 90.504 425.456 90.288 424.376 89.856C423.32 89.4 422.408 88.764 421.64 87.948C420.872 87.132 420.272 86.16 419.84 85.032C419.408 83.904 419.192 82.656 419.192 81.288V80.424C419.192 79.176 419.408 78.012 419.84 76.932C420.296 75.852 420.92 74.928 421.712 74.16C422.504 73.368 423.428 72.756 424.484 72.324C425.564 71.868 426.728 71.64 427.976 71.64C429.44 71.64 430.7 71.916 431.756 72.468C432.836 72.996 433.712 73.656 434.384 74.448C435.08 75.24 435.584 76.104 435.896 77.04C436.232 77.976 436.4 78.84 436.4 79.632V81.936H422ZM427.976 74.304C427.184 74.304 426.44 74.436 425.744 74.7C425.072 74.94 424.472 75.288 423.944 75.744C423.44 76.2 423.02 76.74 422.684 77.364C422.372 77.964 422.168 78.624 422.072 79.344H433.592C433.544 78.576 433.352 77.88 433.016 77.256C432.704 76.632 432.284 76.104 431.756 75.672C431.252 75.24 430.664 74.904 429.992 74.664C429.344 74.424 428.672 74.304 427.976 74.304ZM445.699 76.752C445.699 77.616 446.059 78.276 446.779 78.732C447.523 79.188 448.867 79.488 450.811 79.632C452.899 79.8 454.483 80.304 455.563 81.144C456.667 81.96 457.219 83.16 457.219 84.744V84.96C457.219 85.824 457.039 86.604 456.679 87.3C456.343 87.972 455.863 88.548 455.239 89.028C454.639 89.508 453.895 89.868 453.007 90.108C452.143 90.372 451.195 90.504 450.163 90.504C448.771 90.504 447.571 90.324 446.563 89.964C445.579 89.58 444.751 89.088 444.079 88.488C443.431 87.864 442.939 87.168 442.603 86.4C442.267 85.608 442.075 84.816 442.027 84.024L444.691 83.376C444.811 84.744 445.339 85.848 446.275 86.688C447.211 87.504 448.459 87.912 450.019 87.912C451.339 87.912 452.395 87.66 453.187 87.156C454.003 86.628 454.411 85.896 454.411 84.96C454.411 83.952 454.015 83.232 453.223 82.8C452.431 82.368 451.147 82.092 449.371 81.972C447.307 81.828 445.723 81.348 444.619 80.532C443.515 79.716 442.963 78.528 442.963 76.968V76.752C442.963 75.912 443.143 75.18 443.503 74.556C443.863 73.908 444.343 73.368 444.943 72.936C445.567 72.504 446.263 72.18 447.031 71.964C447.799 71.748 448.603 71.64 449.443 71.64C450.619 71.64 451.651 71.808 452.539 72.144C453.427 72.456 454.171 72.876 454.771 73.404C455.371 73.908 455.827 74.496 456.139 75.168C456.475 75.84 456.691 76.512 456.787 77.184L454.123 77.832C454.003 76.68 453.535 75.78 452.719 75.132C451.927 74.484 450.883 74.16 449.587 74.16C449.083 74.16 448.591 74.22 448.111 74.34C447.655 74.436 447.247 74.592 446.887 74.808C446.527 75.024 446.239 75.3 446.023 75.636C445.807 75.948 445.699 76.32 445.699 76.752ZM466.086 81.936C466.158 83.712 466.71 85.14 467.742 86.22C468.774 87.3 470.214 87.84 472.062 87.84C472.902 87.84 473.634 87.744 474.258 87.552C474.882 87.36 475.41 87.096 475.842 86.76C476.298 86.424 476.658 86.04 476.922 85.608C477.21 85.152 477.438 84.672 477.606 84.168L480.27 84.888C479.766 86.544 478.83 87.9 477.462 88.956C476.118 89.988 474.294 90.504 471.99 90.504C470.718 90.504 469.542 90.288 468.462 89.856C467.406 89.4 466.494 88.764 465.726 87.948C464.958 87.132 464.358 86.16 463.926 85.032C463.494 83.904 463.278 82.656 463.278 81.288V80.424C463.278 79.176 463.494 78.012 463.926 76.932C464.382 75.852 465.006 74.928 465.798 74.16C466.59 73.368 467.514 72.756 468.57 72.324C469.65 71.868 470.814 71.64 472.062 71.64C473.526 71.64 474.786 71.916 475.842 72.468C476.922 72.996 477.798 73.656 478.47 74.448C479.166 75.24 479.67 76.104 479.982 77.04C480.318 77.976 480.486 78.84 480.486 79.632V81.936H466.086ZM472.062 74.304C471.27 74.304 470.526 74.436 469.83 74.7C469.158 74.94 468.558 75.288 468.03 75.744C467.526 76.2 467.106 76.74 466.77 77.364C466.458 77.964 466.254 78.624 466.158 79.344H477.678C477.63 78.576 477.438 77.88 477.102 77.256C476.79 76.632 476.37 76.104 475.842 75.672C475.338 75.24 474.75 74.904 474.078 74.664C473.43 74.424 472.758 74.304 472.062 74.304ZM485.069 72.144H491.549V74.52H491.981C492.437 73.536 493.085 72.816 493.925 72.36C494.765 71.88 495.725 71.64 496.805 71.64C498.605 71.64 500.057 72.228 501.161 73.404C502.265 74.58 502.853 76.296 502.925 78.552L499.973 78.984C499.973 77.328 499.577 76.14 498.785 75.42C497.993 74.676 497.021 74.304 495.869 74.304C495.125 74.304 494.477 74.448 493.925 74.736C493.397 75.024 492.953 75.42 492.593 75.924C492.233 76.428 491.969 77.016 491.801 77.688C491.633 78.36 491.549 79.08 491.549 79.848V87.408H496.085V90H484.637V87.408H488.741V74.736H485.069V72.144ZM518.74 90H513.196L506.968 72.144H510.28L515.752 88.704H516.184L521.656 72.144H524.968L518.74 90ZM532.215 81.936C532.287 83.712 532.839 85.14 533.871 86.22C534.903 87.3 536.343 87.84 538.191 87.84C539.031 87.84 539.763 87.744 540.387 87.552C541.011 87.36 541.539 87.096 541.971 86.76C542.427 86.424 542.787 86.04 543.051 85.608C543.339 85.152 543.567 84.672 543.735 84.168L546.399 84.888C545.895 86.544 544.959 87.9 543.591 88.956C542.247 89.988 540.423 90.504 538.119 90.504C536.847 90.504 535.671 90.288 534.591 89.856C533.535 89.4 532.623 88.764 531.855 87.948C531.087 87.132 530.487 86.16 530.055 85.032C529.623 83.904 529.407 82.656 529.407 81.288V80.424C529.407 79.176 529.623 78.012 530.055 76.932C530.511 75.852 531.135 74.928 531.927 74.16C532.719 73.368 533.643 72.756 534.699 72.324C535.779 71.868 536.943 71.64 538.191 71.64C539.655 71.64 540.915 71.916 541.971 72.468C543.051 72.996 543.927 73.656 544.599 74.448C545.295 75.24 545.799 76.104 546.111 77.04C546.447 77.976 546.615 78.84 546.615 79.632V81.936H532.215ZM538.191 74.304C537.399 74.304 536.655 74.436 535.959 74.7C535.287 74.94 534.687 75.288 534.159 75.744C533.655 76.2 533.235 76.74 532.899 77.364C532.587 77.964 532.383 78.624 532.287 79.344H543.807C543.759 78.576 543.567 77.88 543.231 77.256C542.919 76.632 542.499 76.104 541.971 75.672C541.467 75.24 540.879 74.904 540.207 74.664C539.559 74.424 538.887 74.304 538.191 74.304ZM566.03 87.264H565.598C565.31 87.816 564.938 88.296 564.482 88.704C564.05 89.112 563.57 89.448 563.042 89.712C562.538 89.976 561.998 90.168 561.422 90.288C560.846 90.432 560.294 90.504 559.766 90.504C558.566 90.504 557.45 90.3 556.418 89.892C555.386 89.484 554.474 88.896 553.682 88.128C552.914 87.36 552.302 86.412 551.846 85.284C551.414 84.132 551.198 82.824 551.198 81.36V80.784C551.198 79.344 551.426 78.06 551.882 76.932C552.338 75.78 552.95 74.82 553.718 74.052C554.486 73.26 555.386 72.66 556.418 72.252C557.45 71.844 558.542 71.64 559.694 71.64C560.918 71.64 562.058 71.916 563.114 72.468C564.194 72.996 565.022 73.824 565.598 74.952H566.03V64.8H568.838V90H566.03V87.264ZM560.054 87.84C560.894 87.84 561.674 87.684 562.394 87.372C563.114 87.06 563.738 86.616 564.266 86.04C564.818 85.464 565.25 84.78 565.562 83.988C565.874 83.172 566.03 82.272 566.03 81.288V80.856C566.03 79.896 565.874 79.02 565.562 78.228C565.25 77.412 564.818 76.716 564.266 76.14C563.738 75.564 563.102 75.12 562.358 74.808C561.638 74.472 560.87 74.304 560.054 74.304C559.214 74.304 558.422 74.46 557.678 74.772C556.958 75.084 556.322 75.528 555.77 76.104C555.242 76.68 554.822 77.364 554.51 78.156C554.222 78.948 554.078 79.824 554.078 80.784V81.36C554.078 82.368 554.222 83.268 554.51 84.06C554.822 84.852 555.242 85.536 555.77 86.112C556.322 86.664 556.958 87.096 557.678 87.408C558.398 87.696 559.19 87.84 560.054 87.84Z" fill="black"/>
</svg>
