<svg width="190" height="38" viewBox="0 0 190 38" fill="none" xmlns="http://www.w3.org/2000/svg">
<path d="M159.289 20.4316C158.801 22.1895 156.677 23.4102 153.991 23.4102C150.5 23.4102 148.229 21.1152 148.229 17.5996V16.1348H165.588V12.4238C165.588 5.19727 161.022 0.509766 153.894 0.509766C146.569 0.509766 141.687 5.17285 141.687 12.2285V16.5498C141.687 24.1914 146.179 28.5859 154.016 28.5859C160.266 28.5859 165.026 25.1924 165.588 20.4316H159.289ZM153.771 5.68555C157.141 5.68555 159.143 8.00488 159.143 11.8623H148.229C148.229 8.00488 150.305 5.68555 153.771 5.68555Z" fill="black"/>
<path d="M184.362 28.4639C187.316 28.4639 189.733 25.9736 189.733 22.9707C189.733 19.9434 187.316 17.4531 184.362 17.4531C181.408 17.4531 178.991 19.9434 178.991 22.9707C178.991 25.9736 181.408 28.4639 184.362 28.4639Z" fill="black"/>
<path d="M92 28.3939L135.444 28.4841V8.02709H125.222V18.2556H102.222V8.02709H92V28.3939Z" fill="url(#paint0_linear_845_20)"/>
<path d="M1.56543 9.04688C1.56543 13.1973 4.12891 15.834 9.18262 16.9326L13.2109 17.7871C16.043 18.3975 17.0684 19.1299 17.0684 20.6436C17.0684 22.4014 15.3105 23.5488 12.5762 23.5488C9.79297 23.5488 7.98633 22.5234 7.57129 20.668H0.979492C1.3457 25.7217 5.59375 28.6758 12.4785 28.6758C19.4854 28.6758 23.9287 25.2334 23.9287 19.7891C23.9287 15.6875 21.5117 13.3682 16.0674 12.2451L11.8926 11.3906C9.28027 10.8535 8.15723 9.97461 8.15723 8.50977C8.15723 6.80078 9.8418 5.65332 12.3809 5.65332C14.8711 5.65332 16.6289 6.75195 16.9463 8.53418H23.2451C22.9277 3.48047 18.9482 0.550781 12.4297 0.550781C5.76465 0.550781 1.56543 3.82227 1.56543 9.04688Z" fill="black"/>
<path d="M46.3652 0.770508C42.4346 0.770508 39.7734 2.57715 38.8213 5.82422H38.3086V1.18555H31.4482V37.0742H38.4062V23.5488H38.8945C39.7979 26.7715 42.4834 28.5781 46.3652 28.5781C52.542 28.5781 56.1797 24.3301 56.1797 16.9814V12.3428C56.1797 5.01855 52.542 0.770508 46.3652 0.770508ZM43.8018 6.58105C47.2441 6.58105 49.3682 8.85156 49.3682 12.5381V17.0059C49.3682 20.6924 47.2441 22.9629 43.8018 22.9629C40.335 22.9629 38.2354 20.7168 38.2354 17.0059V12.5381C38.2354 8.82715 40.335 6.58105 43.8018 6.58105Z" fill="black"/>
<path d="M70.6328 28.5537C74.1484 28.5537 76.9805 27.0645 78.2988 24.5254H78.8848V28.1143H85.2324V9.85254C85.2324 3.96875 81.3506 0.672852 74.4414 0.672852C68.0449 0.672852 63.626 3.82227 63.1377 8.70508H69.6318C70.1934 7.02051 71.9268 5.99512 74.2461 5.99512C77.0049 5.99512 78.6162 7.3623 78.6162 9.70605V11.8545L72.3174 12.2451C65.6768 12.709 62.1367 15.5654 62.1367 20.4238C62.1367 25.2822 65.5547 28.5537 70.6328 28.5537ZM72.9277 23.207C70.3398 23.207 68.7285 21.9375 68.7285 19.9355C68.7285 17.8604 70.3154 16.6641 73.4404 16.4688L78.6162 16.1514V18.1045C78.6162 21.1074 76.248 23.207 72.9277 23.207Z" fill="black"/>
<defs>
<linearGradient id="paint0_linear_845_20" x1="189.733" y1="37.0742" x2="94.1346" y2="-77.3317" gradientUnits="userSpaceOnUse">
<stop stop-color="#0209B5"/>
<stop offset="1" stop-color="#00F0FF"/>
</linearGradient>
</defs>
</svg>
