<svg width="13" height="15" viewBox="0 0 13 15" fill="none" xmlns="http://www.w3.org/2000/svg">
<path d="M11.2118 3.20797C11.1167 3.15564 11.0242 3.09828 10.9345 3.0361C10.6738 2.8525 10.4347 2.63617 10.2225 2.39176C9.6915 1.7446 9.49318 1.08807 9.42013 0.628406H9.42306C9.36204 0.246863 9.38727 0 9.39108 0H6.97248V9.96138C6.97248 10.0951 6.97248 10.2273 6.9672 10.3579C6.9672 10.3742 6.96573 10.3892 6.96485 10.4067C6.96485 10.4139 6.96485 10.4214 6.96338 10.4289V10.4345C6.93789 10.7919 6.83032 11.1372 6.65015 11.4399C6.46997 11.7426 6.22271 11.9936 5.93011 12.1706C5.62516 12.3554 5.28025 12.4524 4.9294 12.4519C3.80253 12.4519 2.88925 11.4732 2.88925 10.2645C2.88925 9.0558 3.80253 8.0771 4.9294 8.0771C5.14271 8.07689 5.3547 8.11264 5.55752 8.18303L5.56045 5.56003C4.94476 5.47532 4.31927 5.52744 3.72343 5.7131C3.1276 5.89876 2.57435 6.21393 2.0986 6.63873C1.68173 7.02452 1.33126 7.48484 1.06298 7.99898C0.96088 8.18647 0.575676 8.93987 0.529029 10.1626C0.499691 10.8566 0.695374 11.5757 0.788668 11.8728V11.8791C0.847343 12.0541 1.07471 12.6512 1.44525 13.1547C1.74403 13.5585 2.09704 13.9132 2.4929 14.2074V14.2012L2.49876 14.2074C3.66963 15.0549 4.96783 14.9993 4.96783 14.9993C5.19256 14.9896 5.94536 14.9993 6.80027 14.5677C7.74846 14.0893 8.28828 13.3765 8.28828 13.3765C8.63314 12.9506 8.90736 12.4653 9.09917 11.9413C9.31803 11.3285 9.39108 10.5935 9.39108 10.2998V5.01506C9.42042 5.03381 9.8112 5.30911 9.8112 5.30911C9.8112 5.30911 10.3742 5.69347 11.2526 5.94377C11.8827 6.12188 12.7318 6.15938 12.7318 6.15938V3.60201C12.4343 3.63638 11.8302 3.53639 11.2118 3.20797Z" fill="black"/>
</svg>
