<svg width="18" height="15" viewBox="0 0 18 15" fill="none" xmlns="http://www.w3.org/2000/svg">
<path d="M17.5261 1.77734C16.8686 2.08295 16.1731 2.28429 15.4613 2.375C16.2093 1.9064 16.7718 1.16194 17.0434 0.281256C16.3362 0.723673 15.5637 1.03409 14.7591 1.19922C14.4203 0.819352 14.0129 0.517155 13.5615 0.311C13.1101 0.104844 12.6243 -0.000963797 12.1335 6.61499e-06C10.1465 6.61499e-06 8.53848 1.69531 8.53848 3.78515C8.53708 4.07584 8.56821 4.36566 8.63123 4.64843C7.20639 4.57697 5.81118 4.18811 4.53487 3.50674C3.25855 2.82536 2.12923 1.86647 1.21916 0.691411C0.899882 1.26724 0.731032 1.92424 0.730253 2.59375C0.730253 3.90624 1.37032 5.0664 2.33681 5.74608C1.76419 5.73154 1.20331 5.5694 0.701773 5.27343V5.3203C0.701773 7.15623 1.9432 8.68357 3.58627 9.03123C3.2773 9.11935 2.9589 9.16399 2.63913 9.16404C2.41224 9.16446 2.18586 9.14091 1.96329 9.09373C2.42006 10.5976 3.74948 11.6914 5.32428 11.7226C4.04465 12.7777 2.47359 13.3479 0.858047 13.3437C0.571284 13.3433 0.284786 13.325 0 13.289C1.6435 14.4118 3.55394 15.0056 5.50392 15C12.1259 15 15.7435 9.23045 15.7435 4.22656C15.7435 4.06249 15.7395 3.89843 15.7322 3.73828C16.4344 3.20393 17.0418 2.53989 17.5261 1.77734Z" fill="black"/>
</svg>
