<?xml version="1.0" standalone="no"?>
<!DOCTYPE svg PUBLIC "-//W3C//DTD SVG 20010904//EN"
 "http://www.w3.org/TR/2001/REC-SVG-20010904/DTD/svg10.dtd">
<svg version="1.0" xmlns="http://www.w3.org/2000/svg"
 width="1000.000000pt" height="1000.000000pt" viewBox="0 0 1000.000000 1000.000000"
 preserveAspectRatio="xMidYMid meet">
<metadata>
Created by potrace 1.14, written by Peter Selinger 2001-2017
</metadata>
<g transform="translate(0.000000,1000.000000) scale(0.100000,-0.100000)"
fill="#000000" stroke="none">
<path d="M1839 9996 c-2 -2 -31 -7 -64 -10 -78 -8 -115 -14 -200 -33 -38 -8
-77 -16 -86 -18 -9 -2 -66 -20 -125 -40 -180 -59 -435 -193 -559 -291 -16 -14
-35 -28 -40 -32 -117 -85 -319 -297 -400 -422 -17 -25 -32 -47 -35 -50 -9 -8
-85 -141 -118 -205 -57 -112 -140 -335 -156 -417 -2 -13 -11 -61 -21 -108 -9
-47 -19 -114 -23 -150 -10 -91 -9 -6369 1 -6455 7 -58 22 -141 52 -276 31
-141 167 -443 267 -592 61 -90 192 -252 246 -304 172 -163 284 -248 457 -344
122 -68 365 -167 450 -183 11 -2 49 -11 85 -19 192 -44 66 -42 3420 -42 1752
0 3208 3 3235 7 115 16 240 40 320 62 116 31 326 120 443 188 350 202 624 490
800 843 71 143 143 344 167 470 19 98 27 148 33 210 9 94 9 6352 0 6435 -28
240 -87 440 -191 655 -58 117 -176 308 -224 360 -10 11 -31 36 -47 55 -81 100
-202 215 -322 306 -271 205 -575 331 -924 384 -120 18 -242 19 -3281 19 -1736
1 -3158 -1 -3160 -3z"/>
</g>
</svg>
