<svg width="15" height="15" viewBox="0 0 15 15" fill="none" xmlns="http://www.w3.org/2000/svg">
<path d="M10.6249 1.24989C11.453 1.25236 12.2465 1.58242 12.832 2.16798C13.4176 2.75353 13.7476 3.54701 13.7501 4.37511V10.6249C13.7476 11.453 13.4176 12.2465 12.832 12.832C12.2465 13.4176 11.453 13.7476 10.6249 13.7501H4.37511C3.54701 13.7476 2.75353 13.4176 2.16798 12.832C1.58242 12.2465 1.25236 11.453 1.24989 10.6249V4.37511C1.25236 3.54701 1.58242 2.75353 2.16798 2.16798C2.75353 1.58242 3.54701 1.25236 4.37511 1.24989H10.6249ZM10.6249 0H4.37511C1.96875 0 0 1.96875 0 4.37511V10.6249C0 13.0312 1.96875 15 4.37511 15H10.6249C13.0312 15 15 13.0312 15 10.6249V4.37511C15 1.96875 13.0312 0 10.6249 0Z" fill="black"/>
<path d="M11.5623 4.37537C11.3769 4.37537 11.1957 4.32038 11.0415 4.21737C10.8873 4.11436 10.7672 3.96794 10.6962 3.79663C10.6252 3.62533 10.6067 3.43683 10.6429 3.25497C10.679 3.07311 10.7683 2.90607 10.8994 2.77495C11.0305 2.64384 11.1976 2.55455 11.3794 2.51838C11.5613 2.48221 11.7498 2.50077 11.9211 2.57173C12.0924 2.64269 12.2388 2.76285 12.3418 2.91702C12.4449 3.07119 12.4998 3.25245 12.4998 3.43787C12.5001 3.56106 12.476 3.68308 12.429 3.79695C12.382 3.91081 12.3129 4.01426 12.2258 4.10137C12.1387 4.18848 12.0353 4.25752 11.9214 4.30454C11.8076 4.35156 11.6855 4.37563 11.5623 4.37537ZM7.49995 5.00014C7.99442 5.00014 8.4778 5.14677 8.88894 5.42149C9.30008 5.69621 9.62052 6.08667 9.80975 6.54351C9.99898 7.00034 10.0485 7.50303 9.95202 7.988C9.85555 8.47298 9.61744 8.91846 9.26779 9.2681C8.91815 9.61775 8.47267 9.85586 7.9877 9.95233C7.50272 10.0488 7.00003 9.99929 6.5432 9.81006C6.08636 9.62083 5.6959 9.30039 5.42118 8.88924C5.14647 8.4781 4.99984 7.99473 4.99984 7.50026C5.00055 6.8374 5.26418 6.2019 5.73289 5.73319C6.20159 5.26448 6.8371 5.00085 7.49995 5.00014ZM7.49995 3.75026C6.75827 3.75026 6.03324 3.97019 5.41656 4.38224C4.79988 4.7943 4.31923 5.37997 4.0354 6.06519C3.75157 6.75042 3.67731 7.50442 3.822 8.23185C3.9667 8.95927 4.32385 9.62746 4.8483 10.1519C5.37274 10.6764 6.04093 11.0335 6.76836 11.1782C7.49579 11.3229 8.24979 11.2486 8.93501 10.9648C9.62023 10.681 10.2059 10.2003 10.618 9.58365C11.03 8.96696 11.2499 8.24194 11.2499 7.50026C11.2499 6.50569 10.8549 5.55187 10.1516 4.84861C9.44834 4.14534 8.49451 3.75026 7.49995 3.75026Z" fill="black"/>
</svg>
