<svg width="1000" height="1000" viewBox="0 0 1000 1000" fill="none" xmlns="http://www.w3.org/2000/svg">
<rect width="1000" height="1000" rx="200" fill="white"/>
<g filter="url(#filter0_d_4_18)">
<path d="M452 714.217L871 715V538.783H787.219V626.892L535.781 626.108V538H452V714.217Z" fill="black"/>
<path d="M404.272 372.227L342.383 434.116C317.236 409.214 294.409 396.763 273.901 396.763C262.671 396.763 253.882 399.204 247.534 404.087C241.187 408.726 238.013 414.585 238.013 421.665C238.013 427.036 239.966 432.041 243.872 436.68C248.022 441.074 258.032 447.178 273.901 454.99L310.522 473.301C349.097 492.344 375.586 511.753 389.99 531.528C404.395 551.304 411.597 574.497 411.597 601.108C411.597 636.509 398.535 666.05 372.412 689.731C346.533 713.413 311.743 725.254 268.042 725.254C209.937 725.254 163.55 702.549 128.882 657.139L190.405 590.122C202.124 603.794 215.796 614.902 231.421 623.447C247.29 631.748 261.328 635.898 273.535 635.898C286.719 635.898 297.339 632.725 305.396 626.377C313.452 620.029 317.48 612.705 317.48 604.404C317.48 589.023 302.954 574.009 273.901 559.36L240.21 542.515C175.757 510.044 143.53 469.395 143.53 420.566C143.53 389.072 155.615 362.217 179.785 340C204.199 317.539 235.327 306.309 273.169 306.309C299.048 306.309 323.34 312.046 346.045 323.521C368.994 334.751 388.403 350.986 404.272 372.227Z" fill="black"/>
</g>
<defs>
<filter id="filter0_d_4_18" x="78.8818" y="266.309" width="842.118" height="518.945" filterUnits="userSpaceOnUse" color-interpolation-filters="sRGB">
<feFlood flood-opacity="0" result="BackgroundImageFix"/>
<feColorMatrix in="SourceAlpha" type="matrix" values="0 0 0 0 0 0 0 0 0 0 0 0 0 0 0 0 0 0 127 0" result="hardAlpha"/>
<feOffset dy="10"/>
<feGaussianBlur stdDeviation="25"/>
<feComposite in2="hardAlpha" operator="out"/>
<feColorMatrix type="matrix" values="0 0 0 0 0 0 0 0 0 0 0 0 0 0 0 0 0 0 0.25 0"/>
<feBlend mode="normal" in2="BackgroundImageFix" result="effect1_dropShadow_4_18"/>
<feBlend mode="normal" in="SourceGraphic" in2="effect1_dropShadow_4_18" result="shape"/>
</filter>
</defs>
</svg>
